M48
METRIC,LZ,000.000
;FILE_FORMAT=3:3
;TYPE=PLATED
;Layer: PTH_Through
;EasyEDA v6.5.37, 2024-05-09 17:42:45
;b4389e9f867d4d858d6c44b43acf2c5f,de6e78b871f74d9a82e93d7738eb9b3f,10
;Gerber Generator version 0.2
;Holesize 1 = 0.306 mm
T01C0.306
;Holesize 2 = 0.813 mm
T02C0.813
;Holesize 3 = 0.901 mm
T03C0.901
;Holesize 4 = 0.915 mm
T04C0.915
;Holesize 5 = 1.000 mm
T05C1.000
;Holesize 6 = 1.200 mm
T06C1.200
;Holesize 7 = 1.301 mm
T07C1.301
;Holesize 8 = 1.400 mm
T08C1.400
%
G05
G90
T01
X039880Y086275
X069914Y074059
X044063Y076134
X052457Y093574
X064037Y092865
T02
X041704Y057658
X043704Y057658
X045704Y057658
X047704Y057658
T03
X041326Y097028
X047828Y097028
X042164Y072390
X047244Y072390
T04
X054912Y067056
X060912Y067056
X071643Y101346
X069643Y101346
X067643Y101346
X065643Y101346
X063643Y101346
X061643Y101346
X059643Y101346
X057643Y101346
X071643Y091186
X069643Y091186
X067643Y091186
X065643Y091186
X063643Y091186
X061643Y091186
X059643Y091186
X057643Y091186
X071643Y081026
X069643Y081026
X067643Y081026
X065643Y081026
X063643Y081026
X061643Y081026
X059643Y081026
X057643Y081026
T05
X010736Y096028G85X010736Y096028
X010736Y093488G85X010736Y093488
X010736Y090948G85X010736Y090948
X010736Y088408G85X010736Y088408
X010736Y085868G85X010736Y085868
X010736Y083328G85X010736Y083328
X010736Y080788G85X010736Y080788
X010736Y078248G85X010736Y078248
X010736Y075708G85X010736Y075708
X010736Y073168G85X010736Y073168
X010736Y070628G85X010736Y070628
X010736Y068088G85X010736Y068088
X010736Y065548G85X010736Y065548
X010736Y063008G85X010736Y063008
X010736Y060468G85X010736Y060468
X035506Y060468G85X035506Y060468
X035506Y063008G85X035506Y063008
X035506Y065548G85X035506Y065548
X035506Y068088G85X035506Y068088
X035506Y070628G85X035506Y070628
X035506Y073168G85X035506Y073168
X035506Y075708G85X035506Y075708
X035506Y078248G85X035506Y078248
X035506Y080788G85X035506Y080788
X035506Y083328G85X035506Y083328
X035506Y085868G85X035506Y085868
X035506Y088408G85X035506Y088408
X035506Y090948G85X035506Y090948
X035506Y093488G85X035506Y093488
X035506Y096028G85X035506Y096028
X039554Y087503
X049854Y087503
X039554Y082677
X049854Y082677
X039554Y077978
X049854Y077978
T06
X057912Y057663
X060452Y057653
X055372Y057663
T07
X044704Y065024
X047244Y065024
X042164Y065024
T08
X072009Y064683
X072009Y069683
M30
