G04 Layer: BottomSolderMaskLayer*
G04 EasyEDA v6.5.37, 2024-05-09 17:42:45*
G04 b4389e9f867d4d858d6c44b43acf2c5f,de6e78b871f74d9a82e93d7738eb9b3f,10*
G04 Gerber Generator version 0.2*
G04 Scale: 100 percent, Rotated: No, Reflected: No *
G04 Dimensions in millimeters *
G04 leading zeros omitted , absolute positions ,4 integer and 5 decimal *
%FSLAX45Y45*%
%MOMM*%

%AMMACRO1*1,1,$1,$2,$3*1,1,$1,$4,$5*1,1,$1,0-$2,0-$3*1,1,$1,0-$4,0-$5*20,1,$1,$2,$3,$4,$5,0*20,1,$1,$4,$5,0-$2,0-$3,0*20,1,$1,0-$2,0-$3,0-$4,0-$5,0*20,1,$1,0-$4,0-$5,$2,$3,0*4,1,4,$2,$3,$4,$5,0-$2,0-$3,0-$4,0-$5,$2,$3,0*%
%ADD10C,2.0320*%
%ADD11C,2.3016*%
%ADD12O,1.9015964X2.7015948*%
%ADD13MACRO1,0.1016X-0.9X1.3X0.9X1.3*%
%ADD14C,1.8796*%
%ADD15C,1.3016*%
%ADD16C,1.6256*%
%ADD17MACRO1,0.1016X-0.7X0.7X0.7X0.7*%
%ADD18C,1.5016*%
%ADD19MACRO1,0.1016X-0.762X0.762X0.762X0.762*%
%ADD20O,2.0000214X2.5000204000000004*%
%ADD21MACRO1,0.1X-0.95X1.2X0.95X1.2*%

%LPD*%
D10*
G01*
X1073607Y9602825D03*
G01*
X1073607Y9348825D03*
G01*
X1073607Y9094825D03*
G01*
X1073607Y8840825D03*
G01*
X1073607Y8586825D03*
G01*
X1073607Y8332825D03*
G01*
X1073607Y8078825D03*
G01*
X1073607Y7824825D03*
G01*
X1073607Y7570825D03*
G01*
X1073607Y7316825D03*
G01*
X1073607Y7062825D03*
G01*
X1073607Y6808825D03*
G01*
X1073607Y6554825D03*
G01*
X1073607Y6300825D03*
G01*
X1073607Y6046825D03*
G01*
X3550615Y6046825D03*
G01*
X3550615Y6300825D03*
G01*
X3550615Y6554825D03*
G01*
X3550615Y6808825D03*
G01*
X3550615Y7062825D03*
G01*
X3550615Y7316825D03*
G01*
X3550615Y7570825D03*
G01*
X3550615Y7824825D03*
G01*
X3550615Y8078825D03*
G01*
X3550615Y8332825D03*
G01*
X3550615Y8586825D03*
G01*
X3550615Y8840825D03*
G01*
X3550615Y9094825D03*
G01*
X3550615Y9348825D03*
G01*
X3550615Y9602825D03*
D11*
G01*
X7200900Y6468287D03*
G01*
X7200900Y6968286D03*
D12*
G01*
X5791200Y5766282D03*
G01*
X6045225Y5765292D03*
D13*
G01*
X5537187Y5766295D03*
D14*
G01*
X4132579Y9702800D03*
G01*
X4782820Y9702800D03*
D15*
G01*
X4216400Y7239000D03*
G01*
X4724400Y7239000D03*
D16*
G01*
X5491200Y6705600D03*
G01*
X6091199Y6705600D03*
D17*
G01*
X4170400Y5765800D03*
D18*
G01*
X4370400Y5765800D03*
G01*
X4570399Y5765800D03*
G01*
X4770399Y5765800D03*
D16*
G01*
X7164298Y10134600D03*
G01*
X6964299Y10134600D03*
G01*
X6764299Y10134600D03*
G01*
X6564299Y10134600D03*
G01*
X6364300Y10134600D03*
G01*
X6164300Y10134600D03*
G01*
X5964300Y10134600D03*
D19*
G01*
X5764301Y10134600D03*
D16*
G01*
X7164298Y9118600D03*
G01*
X6964299Y9118600D03*
G01*
X6764299Y9118600D03*
G01*
X6564299Y9118600D03*
G01*
X6364300Y9118600D03*
G01*
X6164300Y9118600D03*
G01*
X5964300Y9118600D03*
D19*
G01*
X5764301Y9118600D03*
D16*
G01*
X7164298Y8102600D03*
G01*
X6964299Y8102600D03*
G01*
X6764299Y8102600D03*
G01*
X6564299Y8102600D03*
G01*
X6364300Y8102600D03*
G01*
X6164300Y8102600D03*
G01*
X5964300Y8102600D03*
D19*
G01*
X5764301Y8102600D03*
D16*
G01*
X3955389Y8750300D03*
G01*
X4985410Y8750300D03*
G01*
X3955389Y8267700D03*
G01*
X4985410Y8267700D03*
G01*
X3955389Y7797800D03*
G01*
X4985410Y7797800D03*
D20*
G01*
X4470400Y6502374D03*
G01*
X4724400Y6502374D03*
D21*
G01*
X4216400Y6502400D03*
M02*
