G04 Layer: TopSilkscreenLayer*
G04 EasyEDA v6.5.37, 2024-05-09 17:42:45*
G04 b4389e9f867d4d858d6c44b43acf2c5f,de6e78b871f74d9a82e93d7738eb9b3f,10*
G04 Gerber Generator version 0.2*
G04 Scale: 100 percent, Rotated: No, Reflected: No *
G04 Dimensions in millimeters *
G04 leading zeros omitted , absolute positions ,4 integer and 5 decimal *
%FSLAX45Y45*%
%MOMM*%

%ADD10C,0.1524*%
%ADD11C,0.0813*%
%ADD12C,0.1544*%
%ADD13C,0.2540*%
%ADD14C,0.1300*%
%ADD15C,0.4000*%
%ADD16C,0.0176*%

%LPD*%
D10*
X2260600Y5150612D02*
G01*
X2250186Y5145278D01*
X2234691Y5129784D01*
X2234691Y5238750D01*
D11*
X1316799Y9690087D02*
G01*
X1367599Y9690087D01*
X1339913Y9653257D01*
X1353883Y9653257D01*
X1363027Y9648685D01*
X1367599Y9643859D01*
X1372171Y9630143D01*
X1372171Y9620999D01*
X1367599Y9607029D01*
X1358455Y9597885D01*
X1344485Y9593059D01*
X1330769Y9593059D01*
X1316799Y9597885D01*
X1312227Y9602457D01*
X1307655Y9611601D01*
X1402651Y9690087D02*
G01*
X1439735Y9593059D01*
X1476565Y9690087D02*
G01*
X1439735Y9593059D01*
X1516443Y9690087D02*
G01*
X1567243Y9690087D01*
X1539557Y9653257D01*
X1553273Y9653257D01*
X1562671Y9648685D01*
X1567243Y9643859D01*
X1571815Y9630143D01*
X1571815Y9620999D01*
X1567243Y9607029D01*
X1557845Y9597885D01*
X1544129Y9593059D01*
X1530159Y9593059D01*
X1516443Y9597885D01*
X1511871Y9602457D01*
X1507045Y9611601D01*
X1376997Y9412973D02*
G01*
X1372171Y9422371D01*
X1363027Y9431515D01*
X1353883Y9436087D01*
X1335341Y9436087D01*
X1326197Y9431515D01*
X1316799Y9422371D01*
X1312227Y9412973D01*
X1307655Y9399257D01*
X1307655Y9376143D01*
X1312227Y9362173D01*
X1316799Y9353029D01*
X1326197Y9343885D01*
X1335341Y9339059D01*
X1353883Y9339059D01*
X1363027Y9343885D01*
X1372171Y9353029D01*
X1376997Y9362173D01*
X1376997Y9376143D01*
X1353883Y9376143D02*
G01*
X1376997Y9376143D01*
X1407477Y9436087D02*
G01*
X1407477Y9339059D01*
X1407477Y9436087D02*
G01*
X1471993Y9339059D01*
X1471993Y9436087D02*
G01*
X1471993Y9339059D01*
X1502473Y9436087D02*
G01*
X1502473Y9339059D01*
X1502473Y9436087D02*
G01*
X1534731Y9436087D01*
X1548701Y9431515D01*
X1557845Y9422371D01*
X1562671Y9412973D01*
X1567243Y9399257D01*
X1567243Y9376143D01*
X1562671Y9362173D01*
X1557845Y9353029D01*
X1548701Y9343885D01*
X1534731Y9339059D01*
X1502473Y9339059D01*
X1307655Y9182087D02*
G01*
X1307655Y9085059D01*
X1365821Y9182087D02*
G01*
X1356677Y9177515D01*
X1347279Y9168371D01*
X1342707Y9158973D01*
X1338135Y9145257D01*
X1338135Y9122143D01*
X1342707Y9108173D01*
X1347279Y9099029D01*
X1356677Y9089885D01*
X1365821Y9085059D01*
X1384363Y9085059D01*
X1393507Y9089885D01*
X1402651Y9099029D01*
X1407477Y9108173D01*
X1412049Y9122143D01*
X1412049Y9145257D01*
X1407477Y9158973D01*
X1402651Y9168371D01*
X1393507Y9177515D01*
X1384363Y9182087D01*
X1365821Y9182087D01*
X1442529Y9163799D02*
G01*
X1451673Y9168371D01*
X1465643Y9182087D01*
X1465643Y9085059D01*
X1551495Y9182087D02*
G01*
X1505267Y9182087D01*
X1500695Y9140685D01*
X1505267Y9145257D01*
X1519237Y9149829D01*
X1532953Y9149829D01*
X1546923Y9145257D01*
X1556067Y9135859D01*
X1560639Y9122143D01*
X1560639Y9112999D01*
X1556067Y9099029D01*
X1546923Y9089885D01*
X1532953Y9085059D01*
X1519237Y9085059D01*
X1505267Y9089885D01*
X1500695Y9094457D01*
X1496123Y9103601D01*
X1307655Y8928087D02*
G01*
X1307655Y8831059D01*
X1365821Y8928087D02*
G01*
X1356677Y8923515D01*
X1347279Y8914371D01*
X1342707Y8904973D01*
X1338135Y8891257D01*
X1338135Y8868143D01*
X1342707Y8854173D01*
X1347279Y8845029D01*
X1356677Y8835885D01*
X1365821Y8831059D01*
X1384363Y8831059D01*
X1393507Y8835885D01*
X1402651Y8845029D01*
X1407477Y8854173D01*
X1412049Y8868143D01*
X1412049Y8891257D01*
X1407477Y8904973D01*
X1402651Y8914371D01*
X1393507Y8923515D01*
X1384363Y8928087D01*
X1365821Y8928087D01*
X1447101Y8904973D02*
G01*
X1447101Y8909799D01*
X1451673Y8918943D01*
X1456245Y8923515D01*
X1465643Y8928087D01*
X1483931Y8928087D01*
X1493329Y8923515D01*
X1497901Y8918943D01*
X1502473Y8909799D01*
X1502473Y8900401D01*
X1497901Y8891257D01*
X1488757Y8877287D01*
X1442529Y8831059D01*
X1507045Y8831059D01*
X1307655Y8674087D02*
G01*
X1307655Y8577059D01*
X1365821Y8674087D02*
G01*
X1356677Y8669515D01*
X1347279Y8660371D01*
X1342707Y8650973D01*
X1338135Y8637257D01*
X1338135Y8614143D01*
X1342707Y8600173D01*
X1347279Y8591029D01*
X1356677Y8581885D01*
X1365821Y8577059D01*
X1384363Y8577059D01*
X1393507Y8581885D01*
X1402651Y8591029D01*
X1407477Y8600173D01*
X1412049Y8614143D01*
X1412049Y8637257D01*
X1407477Y8650973D01*
X1402651Y8660371D01*
X1393507Y8669515D01*
X1384363Y8674087D01*
X1365821Y8674087D01*
X1488757Y8674087D02*
G01*
X1442529Y8609571D01*
X1511871Y8609571D01*
X1488757Y8674087D02*
G01*
X1488757Y8577059D01*
X1307655Y8420087D02*
G01*
X1307655Y8323059D01*
X1365821Y8420087D02*
G01*
X1356677Y8415515D01*
X1347279Y8406371D01*
X1342707Y8396973D01*
X1338135Y8383257D01*
X1338135Y8360143D01*
X1342707Y8346173D01*
X1347279Y8337029D01*
X1356677Y8327885D01*
X1365821Y8323059D01*
X1384363Y8323059D01*
X1393507Y8327885D01*
X1402651Y8337029D01*
X1407477Y8346173D01*
X1412049Y8360143D01*
X1412049Y8383257D01*
X1407477Y8396973D01*
X1402651Y8406371D01*
X1393507Y8415515D01*
X1384363Y8420087D01*
X1365821Y8420087D01*
X1442529Y8401799D02*
G01*
X1451673Y8406371D01*
X1465643Y8420087D01*
X1465643Y8323059D01*
X1551495Y8406371D02*
G01*
X1546923Y8415515D01*
X1532953Y8420087D01*
X1523809Y8420087D01*
X1509839Y8415515D01*
X1500695Y8401799D01*
X1496123Y8378685D01*
X1496123Y8355571D01*
X1500695Y8337029D01*
X1509839Y8327885D01*
X1523809Y8323059D01*
X1528381Y8323059D01*
X1542351Y8327885D01*
X1551495Y8337029D01*
X1556067Y8350999D01*
X1556067Y8355571D01*
X1551495Y8369287D01*
X1542351Y8378685D01*
X1528381Y8383257D01*
X1523809Y8383257D01*
X1509839Y8378685D01*
X1500695Y8369287D01*
X1496123Y8355571D01*
X1307655Y8166087D02*
G01*
X1307655Y8069059D01*
X1365821Y8166087D02*
G01*
X1356677Y8161515D01*
X1347279Y8152371D01*
X1342707Y8142973D01*
X1338135Y8129257D01*
X1338135Y8106143D01*
X1342707Y8092173D01*
X1347279Y8083029D01*
X1356677Y8073885D01*
X1365821Y8069059D01*
X1384363Y8069059D01*
X1393507Y8073885D01*
X1402651Y8083029D01*
X1407477Y8092173D01*
X1412049Y8106143D01*
X1412049Y8129257D01*
X1407477Y8142973D01*
X1402651Y8152371D01*
X1393507Y8161515D01*
X1384363Y8166087D01*
X1365821Y8166087D01*
X1442529Y8147799D02*
G01*
X1451673Y8152371D01*
X1465643Y8166087D01*
X1465643Y8069059D01*
X1560639Y8166087D02*
G01*
X1514411Y8069059D01*
X1496123Y8166087D02*
G01*
X1560639Y8166087D01*
X1307655Y7912087D02*
G01*
X1307655Y7815059D01*
X1365821Y7912087D02*
G01*
X1356677Y7907515D01*
X1347279Y7898371D01*
X1342707Y7888973D01*
X1338135Y7875257D01*
X1338135Y7852143D01*
X1342707Y7838173D01*
X1347279Y7829029D01*
X1356677Y7819885D01*
X1365821Y7815059D01*
X1384363Y7815059D01*
X1393507Y7819885D01*
X1402651Y7829029D01*
X1407477Y7838173D01*
X1412049Y7852143D01*
X1412049Y7875257D01*
X1407477Y7888973D01*
X1402651Y7898371D01*
X1393507Y7907515D01*
X1384363Y7912087D01*
X1365821Y7912087D01*
X1497901Y7912087D02*
G01*
X1451673Y7912087D01*
X1447101Y7870685D01*
X1451673Y7875257D01*
X1465643Y7879829D01*
X1479359Y7879829D01*
X1493329Y7875257D01*
X1502473Y7865859D01*
X1507045Y7852143D01*
X1507045Y7842999D01*
X1502473Y7829029D01*
X1493329Y7819885D01*
X1479359Y7815059D01*
X1465643Y7815059D01*
X1451673Y7819885D01*
X1447101Y7824457D01*
X1442529Y7833601D01*
X1307655Y7658087D02*
G01*
X1307655Y7561059D01*
X1365821Y7658087D02*
G01*
X1356677Y7653515D01*
X1347279Y7644371D01*
X1342707Y7634973D01*
X1338135Y7621257D01*
X1338135Y7598143D01*
X1342707Y7584173D01*
X1347279Y7575029D01*
X1356677Y7565885D01*
X1365821Y7561059D01*
X1384363Y7561059D01*
X1393507Y7565885D01*
X1402651Y7575029D01*
X1407477Y7584173D01*
X1412049Y7598143D01*
X1412049Y7621257D01*
X1407477Y7634973D01*
X1402651Y7644371D01*
X1393507Y7653515D01*
X1384363Y7658087D01*
X1365821Y7658087D01*
X1442529Y7639799D02*
G01*
X1451673Y7644371D01*
X1465643Y7658087D01*
X1465643Y7561059D01*
X1519237Y7658087D02*
G01*
X1505267Y7653515D01*
X1500695Y7644371D01*
X1500695Y7634973D01*
X1505267Y7625829D01*
X1514411Y7621257D01*
X1532953Y7616685D01*
X1546923Y7611859D01*
X1556067Y7602715D01*
X1560639Y7593571D01*
X1560639Y7579601D01*
X1556067Y7570457D01*
X1551495Y7565885D01*
X1537525Y7561059D01*
X1519237Y7561059D01*
X1505267Y7565885D01*
X1500695Y7570457D01*
X1496123Y7579601D01*
X1496123Y7593571D01*
X1500695Y7602715D01*
X1509839Y7611859D01*
X1523809Y7616685D01*
X1542351Y7621257D01*
X1551495Y7625829D01*
X1556067Y7634973D01*
X1556067Y7644371D01*
X1551495Y7653515D01*
X1537525Y7658087D01*
X1519237Y7658087D01*
X1307655Y7404087D02*
G01*
X1307655Y7307059D01*
X1365821Y7404087D02*
G01*
X1356677Y7399515D01*
X1347279Y7390371D01*
X1342707Y7380973D01*
X1338135Y7367257D01*
X1338135Y7344143D01*
X1342707Y7330173D01*
X1347279Y7321029D01*
X1356677Y7311885D01*
X1365821Y7307059D01*
X1384363Y7307059D01*
X1393507Y7311885D01*
X1402651Y7321029D01*
X1407477Y7330173D01*
X1412049Y7344143D01*
X1412049Y7367257D01*
X1407477Y7380973D01*
X1402651Y7390371D01*
X1393507Y7399515D01*
X1384363Y7404087D01*
X1365821Y7404087D01*
X1442529Y7385799D02*
G01*
X1451673Y7390371D01*
X1465643Y7404087D01*
X1465643Y7307059D01*
X1556067Y7371829D02*
G01*
X1551495Y7357859D01*
X1542351Y7348715D01*
X1528381Y7344143D01*
X1523809Y7344143D01*
X1509839Y7348715D01*
X1500695Y7357859D01*
X1496123Y7371829D01*
X1496123Y7376401D01*
X1500695Y7390371D01*
X1509839Y7399515D01*
X1523809Y7404087D01*
X1528381Y7404087D01*
X1542351Y7399515D01*
X1551495Y7390371D01*
X1556067Y7371829D01*
X1556067Y7348715D01*
X1551495Y7325601D01*
X1542351Y7311885D01*
X1528381Y7307059D01*
X1519237Y7307059D01*
X1505267Y7311885D01*
X1500695Y7321029D01*
X1307655Y7150087D02*
G01*
X1307655Y7053059D01*
X1365821Y7150087D02*
G01*
X1356677Y7145515D01*
X1347279Y7136371D01*
X1342707Y7126973D01*
X1338135Y7113257D01*
X1338135Y7090143D01*
X1342707Y7076173D01*
X1347279Y7067029D01*
X1356677Y7057885D01*
X1365821Y7053059D01*
X1384363Y7053059D01*
X1393507Y7057885D01*
X1402651Y7067029D01*
X1407477Y7076173D01*
X1412049Y7090143D01*
X1412049Y7113257D01*
X1407477Y7126973D01*
X1402651Y7136371D01*
X1393507Y7145515D01*
X1384363Y7150087D01*
X1365821Y7150087D01*
X1447101Y7126973D02*
G01*
X1447101Y7131799D01*
X1451673Y7140943D01*
X1456245Y7145515D01*
X1465643Y7150087D01*
X1483931Y7150087D01*
X1493329Y7145515D01*
X1497901Y7140943D01*
X1502473Y7131799D01*
X1502473Y7122401D01*
X1497901Y7113257D01*
X1488757Y7099287D01*
X1442529Y7053059D01*
X1507045Y7053059D01*
X1537525Y7131799D02*
G01*
X1546923Y7136371D01*
X1560639Y7150087D01*
X1560639Y7053059D01*
X1307655Y6896087D02*
G01*
X1307655Y6799059D01*
X1365821Y6896087D02*
G01*
X1356677Y6891515D01*
X1347279Y6882371D01*
X1342707Y6872973D01*
X1338135Y6859257D01*
X1338135Y6836143D01*
X1342707Y6822173D01*
X1347279Y6813029D01*
X1356677Y6803885D01*
X1365821Y6799059D01*
X1384363Y6799059D01*
X1393507Y6803885D01*
X1402651Y6813029D01*
X1407477Y6822173D01*
X1412049Y6836143D01*
X1412049Y6859257D01*
X1407477Y6872973D01*
X1402651Y6882371D01*
X1393507Y6891515D01*
X1384363Y6896087D01*
X1365821Y6896087D01*
X1451673Y6896087D02*
G01*
X1502473Y6896087D01*
X1474787Y6859257D01*
X1488757Y6859257D01*
X1497901Y6854685D01*
X1502473Y6849859D01*
X1507045Y6836143D01*
X1507045Y6826999D01*
X1502473Y6813029D01*
X1493329Y6803885D01*
X1479359Y6799059D01*
X1465643Y6799059D01*
X1451673Y6803885D01*
X1447101Y6808457D01*
X1442529Y6817601D01*
X1307655Y6642087D02*
G01*
X1307655Y6545059D01*
X1365821Y6642087D02*
G01*
X1356677Y6637515D01*
X1347279Y6628371D01*
X1342707Y6618973D01*
X1338135Y6605257D01*
X1338135Y6582143D01*
X1342707Y6568173D01*
X1347279Y6559029D01*
X1356677Y6549885D01*
X1365821Y6545059D01*
X1384363Y6545059D01*
X1393507Y6549885D01*
X1402651Y6559029D01*
X1407477Y6568173D01*
X1412049Y6582143D01*
X1412049Y6605257D01*
X1407477Y6618973D01*
X1402651Y6628371D01*
X1393507Y6637515D01*
X1384363Y6642087D01*
X1365821Y6642087D01*
X1442529Y6623799D02*
G01*
X1451673Y6628371D01*
X1465643Y6642087D01*
X1465643Y6545059D01*
X1307655Y6388087D02*
G01*
X1307655Y6291059D01*
X1365821Y6388087D02*
G01*
X1356677Y6383515D01*
X1347279Y6374371D01*
X1342707Y6364973D01*
X1338135Y6351257D01*
X1338135Y6328143D01*
X1342707Y6314173D01*
X1347279Y6305029D01*
X1356677Y6295885D01*
X1365821Y6291059D01*
X1384363Y6291059D01*
X1393507Y6295885D01*
X1402651Y6305029D01*
X1407477Y6314173D01*
X1412049Y6328143D01*
X1412049Y6351257D01*
X1407477Y6364973D01*
X1402651Y6374371D01*
X1393507Y6383515D01*
X1384363Y6388087D01*
X1365821Y6388087D01*
X1447101Y6364973D02*
G01*
X1447101Y6369799D01*
X1451673Y6378943D01*
X1456245Y6383515D01*
X1465643Y6388087D01*
X1483931Y6388087D01*
X1493329Y6383515D01*
X1497901Y6378943D01*
X1502473Y6369799D01*
X1502473Y6360401D01*
X1497901Y6351257D01*
X1488757Y6337287D01*
X1442529Y6291059D01*
X1507045Y6291059D01*
X1542351Y6364973D02*
G01*
X1542351Y6369799D01*
X1546923Y6378943D01*
X1551495Y6383515D01*
X1560639Y6388087D01*
X1579181Y6388087D01*
X1588325Y6383515D01*
X1593151Y6378943D01*
X1597723Y6369799D01*
X1597723Y6360401D01*
X1593151Y6351257D01*
X1583753Y6337287D01*
X1537525Y6291059D01*
X1602295Y6291059D01*
X1307655Y6134087D02*
G01*
X1307655Y6037059D01*
X1365821Y6134087D02*
G01*
X1356677Y6129515D01*
X1347279Y6120371D01*
X1342707Y6110973D01*
X1338135Y6097257D01*
X1338135Y6074143D01*
X1342707Y6060173D01*
X1347279Y6051029D01*
X1356677Y6041885D01*
X1365821Y6037059D01*
X1384363Y6037059D01*
X1393507Y6041885D01*
X1402651Y6051029D01*
X1407477Y6060173D01*
X1412049Y6074143D01*
X1412049Y6097257D01*
X1407477Y6110973D01*
X1402651Y6120371D01*
X1393507Y6129515D01*
X1384363Y6134087D01*
X1365821Y6134087D01*
X1447101Y6110973D02*
G01*
X1447101Y6115799D01*
X1451673Y6124943D01*
X1456245Y6129515D01*
X1465643Y6134087D01*
X1483931Y6134087D01*
X1493329Y6129515D01*
X1497901Y6124943D01*
X1502473Y6115799D01*
X1502473Y6106401D01*
X1497901Y6097257D01*
X1488757Y6083287D01*
X1442529Y6037059D01*
X1507045Y6037059D01*
X1546923Y6134087D02*
G01*
X1597723Y6134087D01*
X1570037Y6097257D01*
X1583753Y6097257D01*
X1593151Y6092685D01*
X1597723Y6087859D01*
X1602295Y6074143D01*
X1602295Y6064999D01*
X1597723Y6051029D01*
X1588325Y6041885D01*
X1574609Y6037059D01*
X1560639Y6037059D01*
X1546923Y6041885D01*
X1542351Y6046457D01*
X1537525Y6055601D01*
X3079661Y9688258D02*
G01*
X3116491Y9591230D01*
X3153575Y9688258D02*
G01*
X3116491Y9591230D01*
X3184055Y9688258D02*
G01*
X3184055Y9591230D01*
X3214535Y9688258D02*
G01*
X3214535Y9591230D01*
X3214535Y9688258D02*
G01*
X3279051Y9591230D01*
X3279051Y9688258D02*
G01*
X3279051Y9591230D01*
X3149003Y9411144D02*
G01*
X3144177Y9420288D01*
X3135033Y9429432D01*
X3125889Y9434258D01*
X3107347Y9434258D01*
X3098203Y9429432D01*
X3088805Y9420288D01*
X3084233Y9411144D01*
X3079661Y9397174D01*
X3079661Y9374060D01*
X3084233Y9360344D01*
X3088805Y9350946D01*
X3098203Y9341802D01*
X3107347Y9337230D01*
X3125889Y9337230D01*
X3135033Y9341802D01*
X3144177Y9350946D01*
X3149003Y9360344D01*
X3149003Y9374060D01*
X3125889Y9374060D02*
G01*
X3149003Y9374060D01*
X3179483Y9434258D02*
G01*
X3179483Y9337230D01*
X3179483Y9434258D02*
G01*
X3243999Y9337230D01*
X3243999Y9434258D02*
G01*
X3243999Y9337230D01*
X3274479Y9434258D02*
G01*
X3274479Y9337230D01*
X3274479Y9434258D02*
G01*
X3306737Y9434258D01*
X3320707Y9429432D01*
X3329851Y9420288D01*
X3334423Y9411144D01*
X3339249Y9397174D01*
X3339249Y9374060D01*
X3334423Y9360344D01*
X3329851Y9350946D01*
X3320707Y9341802D01*
X3306737Y9337230D01*
X3274479Y9337230D01*
X3079661Y9180258D02*
G01*
X3079661Y9083230D01*
X3137827Y9180258D02*
G01*
X3128683Y9175432D01*
X3119285Y9166288D01*
X3114713Y9157144D01*
X3110141Y9143174D01*
X3110141Y9120060D01*
X3114713Y9106344D01*
X3119285Y9096946D01*
X3128683Y9087802D01*
X3137827Y9083230D01*
X3156369Y9083230D01*
X3165513Y9087802D01*
X3174657Y9096946D01*
X3179483Y9106344D01*
X3184055Y9120060D01*
X3184055Y9143174D01*
X3179483Y9157144D01*
X3174657Y9166288D01*
X3165513Y9175432D01*
X3156369Y9180258D01*
X3137827Y9180258D01*
X3214535Y9161716D02*
G01*
X3223679Y9166288D01*
X3237649Y9180258D01*
X3237649Y9083230D01*
X3277273Y9180258D02*
G01*
X3328073Y9180258D01*
X3300387Y9143174D01*
X3314103Y9143174D01*
X3323501Y9138602D01*
X3328073Y9134030D01*
X3332645Y9120060D01*
X3332645Y9110916D01*
X3328073Y9096946D01*
X3318929Y9087802D01*
X3304959Y9083230D01*
X3291243Y9083230D01*
X3277273Y9087802D01*
X3272701Y9092374D01*
X3268129Y9101518D01*
X3079661Y8926258D02*
G01*
X3079661Y8829230D01*
X3137827Y8926258D02*
G01*
X3128683Y8921432D01*
X3119285Y8912288D01*
X3114713Y8903144D01*
X3110141Y8889174D01*
X3110141Y8866060D01*
X3114713Y8852344D01*
X3119285Y8842946D01*
X3128683Y8833802D01*
X3137827Y8829230D01*
X3156369Y8829230D01*
X3165513Y8833802D01*
X3174657Y8842946D01*
X3179483Y8852344D01*
X3184055Y8866060D01*
X3184055Y8889174D01*
X3179483Y8903144D01*
X3174657Y8912288D01*
X3165513Y8921432D01*
X3156369Y8926258D01*
X3137827Y8926258D01*
X3214535Y8907716D02*
G01*
X3223679Y8912288D01*
X3237649Y8926258D01*
X3237649Y8829230D01*
X3272701Y8903144D02*
G01*
X3272701Y8907716D01*
X3277273Y8916860D01*
X3281845Y8921432D01*
X3291243Y8926258D01*
X3309531Y8926258D01*
X3318929Y8921432D01*
X3323501Y8916860D01*
X3328073Y8907716D01*
X3328073Y8898318D01*
X3323501Y8889174D01*
X3314103Y8875458D01*
X3268129Y8829230D01*
X3332645Y8829230D01*
X3079661Y8672258D02*
G01*
X3079661Y8575230D01*
X3137827Y8672258D02*
G01*
X3128683Y8667432D01*
X3119285Y8658288D01*
X3114713Y8649144D01*
X3110141Y8635174D01*
X3110141Y8612060D01*
X3114713Y8598344D01*
X3119285Y8588946D01*
X3128683Y8579802D01*
X3137827Y8575230D01*
X3156369Y8575230D01*
X3165513Y8579802D01*
X3174657Y8588946D01*
X3179483Y8598344D01*
X3184055Y8612060D01*
X3184055Y8635174D01*
X3179483Y8649144D01*
X3174657Y8658288D01*
X3165513Y8667432D01*
X3156369Y8672258D01*
X3137827Y8672258D01*
X3214535Y8653716D02*
G01*
X3223679Y8658288D01*
X3237649Y8672258D01*
X3237649Y8575230D01*
X3314103Y8672258D02*
G01*
X3268129Y8607488D01*
X3337217Y8607488D01*
X3314103Y8672258D02*
G01*
X3314103Y8575230D01*
X3079661Y8418258D02*
G01*
X3079661Y8321230D01*
X3137827Y8418258D02*
G01*
X3128683Y8413432D01*
X3119285Y8404288D01*
X3114713Y8395144D01*
X3110141Y8381174D01*
X3110141Y8358060D01*
X3114713Y8344344D01*
X3119285Y8334946D01*
X3128683Y8325802D01*
X3137827Y8321230D01*
X3156369Y8321230D01*
X3165513Y8325802D01*
X3174657Y8334946D01*
X3179483Y8344344D01*
X3184055Y8358060D01*
X3184055Y8381174D01*
X3179483Y8395144D01*
X3174657Y8404288D01*
X3165513Y8413432D01*
X3156369Y8418258D01*
X3137827Y8418258D01*
X3219107Y8395144D02*
G01*
X3219107Y8399716D01*
X3223679Y8408860D01*
X3228251Y8413432D01*
X3237649Y8418258D01*
X3255937Y8418258D01*
X3265335Y8413432D01*
X3269907Y8408860D01*
X3274479Y8399716D01*
X3274479Y8390318D01*
X3269907Y8381174D01*
X3260763Y8367458D01*
X3214535Y8321230D01*
X3279051Y8321230D01*
X3374301Y8418258D02*
G01*
X3328073Y8321230D01*
X3309531Y8418258D02*
G01*
X3374301Y8418258D01*
X3079661Y8164258D02*
G01*
X3079661Y8067230D01*
X3137827Y8164258D02*
G01*
X3128683Y8159432D01*
X3119285Y8150288D01*
X3114713Y8141144D01*
X3110141Y8127174D01*
X3110141Y8104060D01*
X3114713Y8090344D01*
X3119285Y8080946D01*
X3128683Y8071802D01*
X3137827Y8067230D01*
X3156369Y8067230D01*
X3165513Y8071802D01*
X3174657Y8080946D01*
X3179483Y8090344D01*
X3184055Y8104060D01*
X3184055Y8127174D01*
X3179483Y8141144D01*
X3174657Y8150288D01*
X3165513Y8159432D01*
X3156369Y8164258D01*
X3137827Y8164258D01*
X3219107Y8141144D02*
G01*
X3219107Y8145716D01*
X3223679Y8154860D01*
X3228251Y8159432D01*
X3237649Y8164258D01*
X3255937Y8164258D01*
X3265335Y8159432D01*
X3269907Y8154860D01*
X3274479Y8145716D01*
X3274479Y8136318D01*
X3269907Y8127174D01*
X3260763Y8113458D01*
X3214535Y8067230D01*
X3279051Y8067230D01*
X3364903Y8150288D02*
G01*
X3360331Y8159432D01*
X3346615Y8164258D01*
X3337217Y8164258D01*
X3323501Y8159432D01*
X3314103Y8145716D01*
X3309531Y8122602D01*
X3309531Y8099488D01*
X3314103Y8080946D01*
X3323501Y8071802D01*
X3337217Y8067230D01*
X3342043Y8067230D01*
X3355759Y8071802D01*
X3364903Y8080946D01*
X3369729Y8094916D01*
X3369729Y8099488D01*
X3364903Y8113458D01*
X3355759Y8122602D01*
X3342043Y8127174D01*
X3337217Y8127174D01*
X3323501Y8122602D01*
X3314103Y8113458D01*
X3309531Y8099488D01*
X3079661Y7910258D02*
G01*
X3079661Y7813230D01*
X3137827Y7910258D02*
G01*
X3128683Y7905432D01*
X3119285Y7896288D01*
X3114713Y7887144D01*
X3110141Y7873174D01*
X3110141Y7850060D01*
X3114713Y7836344D01*
X3119285Y7826946D01*
X3128683Y7817802D01*
X3137827Y7813230D01*
X3156369Y7813230D01*
X3165513Y7817802D01*
X3174657Y7826946D01*
X3179483Y7836344D01*
X3184055Y7850060D01*
X3184055Y7873174D01*
X3179483Y7887144D01*
X3174657Y7896288D01*
X3165513Y7905432D01*
X3156369Y7910258D01*
X3137827Y7910258D01*
X3219107Y7887144D02*
G01*
X3219107Y7891716D01*
X3223679Y7900860D01*
X3228251Y7905432D01*
X3237649Y7910258D01*
X3255937Y7910258D01*
X3265335Y7905432D01*
X3269907Y7900860D01*
X3274479Y7891716D01*
X3274479Y7882318D01*
X3269907Y7873174D01*
X3260763Y7859458D01*
X3214535Y7813230D01*
X3279051Y7813230D01*
X3364903Y7910258D02*
G01*
X3318929Y7910258D01*
X3314103Y7868602D01*
X3318929Y7873174D01*
X3332645Y7877746D01*
X3346615Y7877746D01*
X3360331Y7873174D01*
X3369729Y7864030D01*
X3374301Y7850060D01*
X3374301Y7840916D01*
X3369729Y7826946D01*
X3360331Y7817802D01*
X3346615Y7813230D01*
X3332645Y7813230D01*
X3318929Y7817802D01*
X3314103Y7822374D01*
X3309531Y7831518D01*
X3079661Y7656258D02*
G01*
X3079661Y7559230D01*
X3137827Y7656258D02*
G01*
X3128683Y7651432D01*
X3119285Y7642288D01*
X3114713Y7633144D01*
X3110141Y7619174D01*
X3110141Y7596060D01*
X3114713Y7582344D01*
X3119285Y7572946D01*
X3128683Y7563802D01*
X3137827Y7559230D01*
X3156369Y7559230D01*
X3165513Y7563802D01*
X3174657Y7572946D01*
X3179483Y7582344D01*
X3184055Y7596060D01*
X3184055Y7619174D01*
X3179483Y7633144D01*
X3174657Y7642288D01*
X3165513Y7651432D01*
X3156369Y7656258D01*
X3137827Y7656258D01*
X3223679Y7656258D02*
G01*
X3274479Y7656258D01*
X3246793Y7619174D01*
X3260763Y7619174D01*
X3269907Y7614602D01*
X3274479Y7610030D01*
X3279051Y7596060D01*
X3279051Y7586916D01*
X3274479Y7572946D01*
X3265335Y7563802D01*
X3251365Y7559230D01*
X3237649Y7559230D01*
X3223679Y7563802D01*
X3219107Y7568374D01*
X3214535Y7577518D01*
X3318929Y7656258D02*
G01*
X3369729Y7656258D01*
X3342043Y7619174D01*
X3355759Y7619174D01*
X3364903Y7614602D01*
X3369729Y7610030D01*
X3374301Y7596060D01*
X3374301Y7586916D01*
X3369729Y7572946D01*
X3360331Y7563802D01*
X3346615Y7559230D01*
X3332645Y7559230D01*
X3318929Y7563802D01*
X3314103Y7568374D01*
X3309531Y7577518D01*
X3079661Y7402258D02*
G01*
X3079661Y7305230D01*
X3137827Y7402258D02*
G01*
X3128683Y7397432D01*
X3119285Y7388288D01*
X3114713Y7379144D01*
X3110141Y7365174D01*
X3110141Y7342060D01*
X3114713Y7328344D01*
X3119285Y7318946D01*
X3128683Y7309802D01*
X3137827Y7305230D01*
X3156369Y7305230D01*
X3165513Y7309802D01*
X3174657Y7318946D01*
X3179483Y7328344D01*
X3184055Y7342060D01*
X3184055Y7365174D01*
X3179483Y7379144D01*
X3174657Y7388288D01*
X3165513Y7397432D01*
X3156369Y7402258D01*
X3137827Y7402258D01*
X3223679Y7402258D02*
G01*
X3274479Y7402258D01*
X3246793Y7365174D01*
X3260763Y7365174D01*
X3269907Y7360602D01*
X3274479Y7356030D01*
X3279051Y7342060D01*
X3279051Y7332916D01*
X3274479Y7318946D01*
X3265335Y7309802D01*
X3251365Y7305230D01*
X3237649Y7305230D01*
X3223679Y7309802D01*
X3219107Y7314374D01*
X3214535Y7323518D01*
X3314103Y7379144D02*
G01*
X3314103Y7383716D01*
X3318929Y7392860D01*
X3323501Y7397432D01*
X3332645Y7402258D01*
X3351187Y7402258D01*
X3360331Y7397432D01*
X3364903Y7392860D01*
X3369729Y7383716D01*
X3369729Y7374318D01*
X3364903Y7365174D01*
X3355759Y7351458D01*
X3309531Y7305230D01*
X3374301Y7305230D01*
X3079661Y7148258D02*
G01*
X3079661Y7051230D01*
X3137827Y7148258D02*
G01*
X3128683Y7143432D01*
X3119285Y7134288D01*
X3114713Y7125144D01*
X3110141Y7111174D01*
X3110141Y7088060D01*
X3114713Y7074344D01*
X3119285Y7064946D01*
X3128683Y7055802D01*
X3137827Y7051230D01*
X3156369Y7051230D01*
X3165513Y7055802D01*
X3174657Y7064946D01*
X3179483Y7074344D01*
X3184055Y7088060D01*
X3184055Y7111174D01*
X3179483Y7125144D01*
X3174657Y7134288D01*
X3165513Y7143432D01*
X3156369Y7148258D01*
X3137827Y7148258D01*
X3223679Y7148258D02*
G01*
X3274479Y7148258D01*
X3246793Y7111174D01*
X3260763Y7111174D01*
X3269907Y7106602D01*
X3274479Y7102030D01*
X3279051Y7088060D01*
X3279051Y7078916D01*
X3274479Y7064946D01*
X3265335Y7055802D01*
X3251365Y7051230D01*
X3237649Y7051230D01*
X3223679Y7055802D01*
X3219107Y7060374D01*
X3214535Y7069518D01*
X3364903Y7148258D02*
G01*
X3318929Y7148258D01*
X3314103Y7106602D01*
X3318929Y7111174D01*
X3332645Y7115746D01*
X3346615Y7115746D01*
X3360331Y7111174D01*
X3369729Y7102030D01*
X3374301Y7088060D01*
X3374301Y7078916D01*
X3369729Y7064946D01*
X3360331Y7055802D01*
X3346615Y7051230D01*
X3332645Y7051230D01*
X3318929Y7055802D01*
X3314103Y7060374D01*
X3309531Y7069518D01*
X3079661Y6894258D02*
G01*
X3079661Y6797230D01*
X3137827Y6894258D02*
G01*
X3128683Y6889432D01*
X3119285Y6880288D01*
X3114713Y6871144D01*
X3110141Y6857174D01*
X3110141Y6834060D01*
X3114713Y6820344D01*
X3119285Y6810946D01*
X3128683Y6801802D01*
X3137827Y6797230D01*
X3156369Y6797230D01*
X3165513Y6801802D01*
X3174657Y6810946D01*
X3179483Y6820344D01*
X3184055Y6834060D01*
X3184055Y6857174D01*
X3179483Y6871144D01*
X3174657Y6880288D01*
X3165513Y6889432D01*
X3156369Y6894258D01*
X3137827Y6894258D01*
X3223679Y6894258D02*
G01*
X3274479Y6894258D01*
X3246793Y6857174D01*
X3260763Y6857174D01*
X3269907Y6852602D01*
X3274479Y6848030D01*
X3279051Y6834060D01*
X3279051Y6824916D01*
X3274479Y6810946D01*
X3265335Y6801802D01*
X3251365Y6797230D01*
X3237649Y6797230D01*
X3223679Y6801802D01*
X3219107Y6806374D01*
X3214535Y6815518D01*
X3355759Y6894258D02*
G01*
X3309531Y6829488D01*
X3378873Y6829488D01*
X3355759Y6894258D02*
G01*
X3355759Y6797230D01*
X3079661Y6640258D02*
G01*
X3116491Y6543230D01*
X3153575Y6640258D02*
G01*
X3116491Y6543230D01*
X3184055Y6640258D02*
G01*
X3184055Y6543230D01*
X3184055Y6640258D02*
G01*
X3248571Y6543230D01*
X3248571Y6640258D02*
G01*
X3248571Y6543230D01*
X3079661Y6386258D02*
G01*
X3116491Y6289230D01*
X3153575Y6386258D02*
G01*
X3116491Y6289230D01*
X3184055Y6386258D02*
G01*
X3184055Y6289230D01*
X3184055Y6386258D02*
G01*
X3225457Y6386258D01*
X3239427Y6381432D01*
X3243999Y6376860D01*
X3248571Y6367716D01*
X3248571Y6353746D01*
X3243999Y6344602D01*
X3239427Y6340030D01*
X3225457Y6335458D01*
X3184055Y6335458D01*
X3079661Y6132258D02*
G01*
X3079661Y6035230D01*
X3079661Y6132258D02*
G01*
X3139605Y6132258D01*
X3079661Y6086030D02*
G01*
X3116491Y6086030D01*
X3079661Y6035230D02*
G01*
X3139605Y6035230D01*
X3170085Y6132258D02*
G01*
X3170085Y6035230D01*
X3170085Y6132258D02*
G01*
X3234855Y6035230D01*
X3234855Y6132258D02*
G01*
X3234855Y6035230D01*
D12*
X2495435Y9119247D02*
G01*
X2311031Y9119247D01*
X2495435Y9119247D02*
G01*
X2495435Y9005201D01*
X2407551Y9119247D02*
G01*
X2407551Y9049143D01*
X2311031Y9119247D02*
G01*
X2311031Y9005201D01*
X2469019Y8824353D02*
G01*
X2486545Y8841879D01*
X2495435Y8868295D01*
X2495435Y8903347D01*
X2486545Y8929763D01*
X2469019Y8947289D01*
X2451493Y8947289D01*
X2433967Y8938399D01*
X2425331Y8929763D01*
X2416441Y8912237D01*
X2398915Y8859405D01*
X2390025Y8841879D01*
X2381389Y8833243D01*
X2363863Y8824353D01*
X2337447Y8824353D01*
X2319921Y8841879D01*
X2311031Y8868295D01*
X2311031Y8903347D01*
X2319921Y8929763D01*
X2337447Y8947289D01*
X2495435Y8766441D02*
G01*
X2311031Y8766441D01*
X2495435Y8766441D02*
G01*
X2495435Y8687447D01*
X2486545Y8661285D01*
X2477909Y8652395D01*
X2460383Y8643759D01*
X2433967Y8643759D01*
X2416441Y8652395D01*
X2407551Y8661285D01*
X2398915Y8687447D01*
X2398915Y8766441D01*
X2495435Y8568067D02*
G01*
X2495435Y8471547D01*
X2425331Y8524379D01*
X2425331Y8497963D01*
X2416441Y8480437D01*
X2407551Y8471547D01*
X2381389Y8462911D01*
X2363863Y8462911D01*
X2337447Y8471547D01*
X2319921Y8489327D01*
X2311031Y8515489D01*
X2311031Y8541905D01*
X2319921Y8568067D01*
X2328811Y8576957D01*
X2346337Y8585847D01*
X2451493Y8396109D02*
G01*
X2460383Y8396109D01*
X2477909Y8387473D01*
X2486545Y8378583D01*
X2495435Y8361057D01*
X2495435Y8326005D01*
X2486545Y8308479D01*
X2477909Y8299589D01*
X2460383Y8290953D01*
X2442857Y8290953D01*
X2425331Y8299589D01*
X2398915Y8317115D01*
X2311031Y8404999D01*
X2311031Y8282063D01*
X2390025Y8224151D02*
G01*
X2390025Y8066163D01*
X2495435Y8008251D02*
G01*
X2311031Y8008251D01*
X2495435Y8008251D02*
G01*
X2495435Y7947037D01*
X2486545Y7920621D01*
X2469019Y7903095D01*
X2451493Y7894205D01*
X2425331Y7885569D01*
X2381389Y7885569D01*
X2354973Y7894205D01*
X2337447Y7903095D01*
X2319921Y7920621D01*
X2311031Y7947037D01*
X2311031Y8008251D01*
X2381389Y7827657D02*
G01*
X2381389Y7722247D01*
X2398915Y7722247D01*
X2416441Y7731137D01*
X2425331Y7739773D01*
X2433967Y7757299D01*
X2433967Y7783715D01*
X2425331Y7801241D01*
X2407551Y7818767D01*
X2381389Y7827657D01*
X2363863Y7827657D01*
X2337447Y7818767D01*
X2319921Y7801241D01*
X2311031Y7783715D01*
X2311031Y7757299D01*
X2319921Y7739773D01*
X2337447Y7722247D01*
X2433967Y7664335D02*
G01*
X2311031Y7611757D01*
X2433967Y7559179D02*
G01*
X2311031Y7611757D01*
X2495435Y7501267D02*
G01*
X2311031Y7501267D01*
X2433967Y7413383D02*
G01*
X2346337Y7501267D01*
X2381389Y7466215D02*
G01*
X2311031Y7404747D01*
X2495435Y7346835D02*
G01*
X2486545Y7337945D01*
X2495435Y7329309D01*
X2504071Y7337945D01*
X2495435Y7346835D01*
X2433967Y7337945D02*
G01*
X2311031Y7337945D01*
X2495435Y7244981D02*
G01*
X2346337Y7244981D01*
X2319921Y7236091D01*
X2311031Y7218565D01*
X2311031Y7201039D01*
X2433967Y7271397D02*
G01*
X2433967Y7209929D01*
X2495435Y7007999D02*
G01*
X2311031Y6937895D01*
X2495435Y6867791D02*
G01*
X2311031Y6937895D01*
X2460383Y6809879D02*
G01*
X2469019Y6792099D01*
X2495435Y6765937D01*
X2311031Y6765937D01*
X1811921Y5758040D02*
G01*
X1741817Y5573636D01*
X1811921Y5758040D02*
G01*
X1882279Y5573636D01*
X1768233Y5635104D02*
G01*
X1855863Y5635104D01*
X1940191Y5696572D02*
G01*
X1940191Y5573636D01*
X1940191Y5661520D02*
G01*
X1966353Y5687936D01*
X1983879Y5696572D01*
X2010295Y5696572D01*
X2027821Y5687936D01*
X2036711Y5661520D01*
X2036711Y5573636D01*
X2120785Y5758040D02*
G01*
X2120785Y5608942D01*
X2129675Y5582526D01*
X2147201Y5573636D01*
X2164727Y5573636D01*
X2094623Y5696572D02*
G01*
X2156091Y5696572D01*
X2222639Y5643994D02*
G01*
X2328049Y5643994D01*
X2328049Y5661520D01*
X2319159Y5679046D01*
X2310523Y5687936D01*
X2292743Y5696572D01*
X2266581Y5696572D01*
X2249055Y5687936D01*
X2231529Y5670156D01*
X2222639Y5643994D01*
X2222639Y5626468D01*
X2231529Y5600052D01*
X2249055Y5582526D01*
X2266581Y5573636D01*
X2292743Y5573636D01*
X2310523Y5582526D01*
X2328049Y5600052D01*
X2385961Y5696572D02*
G01*
X2385961Y5573636D01*
X2385961Y5661520D02*
G01*
X2412123Y5687936D01*
X2429649Y5696572D01*
X2456065Y5696572D01*
X2473591Y5687936D01*
X2482481Y5661520D01*
X2482481Y5573636D01*
X2540393Y5696572D02*
G01*
X2540393Y5573636D01*
X2540393Y5661520D02*
G01*
X2566555Y5687936D01*
X2584081Y5696572D01*
X2610497Y5696572D01*
X2628023Y5687936D01*
X2636913Y5661520D01*
X2636913Y5573636D01*
X2799981Y5696572D02*
G01*
X2799981Y5573636D01*
X2799981Y5670156D02*
G01*
X2782455Y5687936D01*
X2764929Y5696572D01*
X2738513Y5696572D01*
X2720987Y5687936D01*
X2703461Y5670156D01*
X2694825Y5643994D01*
X2694825Y5626468D01*
X2703461Y5600052D01*
X2720987Y5582526D01*
X2738513Y5573636D01*
X2764929Y5573636D01*
X2782455Y5582526D01*
X2799981Y5600052D01*
D10*
X6641084Y6220713D02*
G01*
X6641084Y6277863D01*
X6682740Y6246621D01*
X6682740Y6262370D01*
X6687820Y6272529D01*
X6692900Y6277863D01*
X6708647Y6282944D01*
X6719061Y6282944D01*
X6734556Y6277863D01*
X6744970Y6267450D01*
X6750050Y6251955D01*
X6750050Y6236207D01*
X6744970Y6220713D01*
X6739890Y6215379D01*
X6729475Y6210300D01*
X6656577Y6390131D02*
G01*
X6646163Y6379718D01*
X6641084Y6363970D01*
X6641084Y6343395D01*
X6646163Y6327647D01*
X6656577Y6317234D01*
X6666991Y6317234D01*
X6677406Y6322568D01*
X6682740Y6327647D01*
X6687820Y6338062D01*
X6698234Y6369304D01*
X6703313Y6379718D01*
X6708647Y6384797D01*
X6719061Y6390131D01*
X6734556Y6390131D01*
X6744970Y6379718D01*
X6750050Y6363970D01*
X6750050Y6343395D01*
X6744970Y6327647D01*
X6734556Y6317234D01*
X6703313Y6424421D02*
G01*
X6703313Y6517894D01*
X6641084Y6614413D02*
G01*
X6641084Y6562597D01*
X6687820Y6557263D01*
X6682740Y6562597D01*
X6677406Y6578092D01*
X6677406Y6593839D01*
X6682740Y6609334D01*
X6692900Y6619747D01*
X6708647Y6624828D01*
X6719061Y6624828D01*
X6734556Y6619747D01*
X6744970Y6609334D01*
X6750050Y6593839D01*
X6750050Y6578092D01*
X6744970Y6562597D01*
X6739890Y6557263D01*
X6729475Y6552184D01*
X6641084Y6690360D02*
G01*
X6646163Y6674865D01*
X6661911Y6664452D01*
X6687820Y6659118D01*
X6703313Y6659118D01*
X6729475Y6664452D01*
X6744970Y6674865D01*
X6750050Y6690360D01*
X6750050Y6700773D01*
X6744970Y6716268D01*
X6729475Y6726681D01*
X6703313Y6732015D01*
X6687820Y6732015D01*
X6661911Y6726681D01*
X6646163Y6716268D01*
X6641084Y6700773D01*
X6641084Y6690360D01*
X6641084Y6797294D02*
G01*
X6646163Y6781800D01*
X6661911Y6771386D01*
X6687820Y6766305D01*
X6703313Y6766305D01*
X6729475Y6771386D01*
X6744970Y6781800D01*
X6750050Y6797294D01*
X6750050Y6807708D01*
X6744970Y6823455D01*
X6729475Y6833870D01*
X6703313Y6838950D01*
X6687820Y6838950D01*
X6661911Y6833870D01*
X6646163Y6823455D01*
X6641084Y6807708D01*
X6641084Y6797294D01*
X6641084Y6873239D02*
G01*
X6750050Y6873239D01*
X6641084Y6873239D02*
G01*
X6750050Y6914895D01*
X6641084Y6956297D02*
G01*
X6750050Y6914895D01*
X6641084Y6956297D02*
G01*
X6750050Y6956297D01*
X6641084Y7032244D02*
G01*
X6750050Y6990587D01*
X6641084Y7032244D02*
G01*
X6750050Y7073900D01*
X6713727Y7006336D02*
G01*
X6713727Y7058152D01*
X6641084Y7108189D02*
G01*
X6750050Y7108189D01*
X6641084Y7180834D02*
G01*
X6750050Y7180834D01*
X6692900Y7108189D02*
G01*
X6692900Y7180834D01*
X5281929Y6236715D02*
G01*
X5230113Y6236715D01*
X5224779Y6189979D01*
X5230113Y6195060D01*
X5245608Y6200394D01*
X5261356Y6200394D01*
X5276850Y6195060D01*
X5287263Y6184900D01*
X5292343Y6169152D01*
X5292343Y6158737D01*
X5287263Y6143244D01*
X5276850Y6132829D01*
X5261356Y6127750D01*
X5245608Y6127750D01*
X5230113Y6132829D01*
X5224779Y6137910D01*
X5219700Y6148323D01*
X5326634Y6236715D02*
G01*
X5368290Y6127750D01*
X5409945Y6236715D02*
G01*
X5368290Y6127750D01*
X5444236Y6174486D02*
G01*
X5537708Y6174486D01*
X5644641Y6236715D02*
G01*
X5592825Y6127750D01*
X5571997Y6236715D02*
G01*
X5644641Y6236715D01*
X5704840Y6236715D02*
G01*
X5689345Y6231636D01*
X5684265Y6221221D01*
X5684265Y6210807D01*
X5689345Y6200394D01*
X5699759Y6195060D01*
X5720588Y6189979D01*
X5736081Y6184900D01*
X5746495Y6174486D01*
X5751829Y6164071D01*
X5751829Y6148323D01*
X5746495Y6137910D01*
X5741415Y6132829D01*
X5725668Y6127750D01*
X5704840Y6127750D01*
X5689345Y6132829D01*
X5684265Y6137910D01*
X5678931Y6148323D01*
X5678931Y6164071D01*
X5684265Y6174486D01*
X5694679Y6184900D01*
X5710174Y6189979D01*
X5731002Y6195060D01*
X5741415Y6200394D01*
X5746495Y6210807D01*
X5746495Y6221221D01*
X5741415Y6231636D01*
X5725668Y6236715D01*
X5704840Y6236715D01*
X5817108Y6236715D02*
G01*
X5801613Y6231636D01*
X5791200Y6215887D01*
X5786120Y6189979D01*
X5786120Y6174486D01*
X5791200Y6148323D01*
X5801613Y6132829D01*
X5817108Y6127750D01*
X5827522Y6127750D01*
X5843270Y6132829D01*
X5853429Y6148323D01*
X5858763Y6174486D01*
X5858763Y6189979D01*
X5853429Y6215887D01*
X5843270Y6231636D01*
X5827522Y6236715D01*
X5817108Y6236715D01*
X5955284Y6236715D02*
G01*
X5903468Y6236715D01*
X5898134Y6189979D01*
X5903468Y6195060D01*
X5918961Y6200394D01*
X5934709Y6200394D01*
X5950204Y6195060D01*
X5960618Y6184900D01*
X5965697Y6169152D01*
X5965697Y6158737D01*
X5960618Y6143244D01*
X5950204Y6132829D01*
X5934709Y6127750D01*
X5918961Y6127750D01*
X5903468Y6132829D01*
X5898134Y6137910D01*
X5893054Y6148323D01*
X5999988Y6174486D02*
G01*
X6093459Y6174486D01*
X6127750Y6236715D02*
G01*
X6127750Y6127750D01*
X6127750Y6236715D02*
G01*
X6174740Y6236715D01*
X6190234Y6231636D01*
X6195313Y6226302D01*
X6200647Y6215887D01*
X6200647Y6205473D01*
X6195313Y6195060D01*
X6190234Y6189979D01*
X6174740Y6184900D01*
X6127750Y6184900D01*
X6164325Y6184900D02*
G01*
X6200647Y6127750D01*
X6234938Y6236715D02*
G01*
X6234938Y6127750D01*
X6234938Y6236715D02*
G01*
X6302502Y6236715D01*
X6234938Y6184900D02*
G01*
X6276340Y6184900D01*
X6234938Y6127750D02*
G01*
X6302502Y6127750D01*
X6414770Y6210807D02*
G01*
X6409436Y6221221D01*
X6399022Y6231636D01*
X6388608Y6236715D01*
X6367779Y6236715D01*
X6357620Y6231636D01*
X6347206Y6221221D01*
X6341872Y6210807D01*
X6336791Y6195060D01*
X6336791Y6169152D01*
X6341872Y6153657D01*
X6347206Y6143244D01*
X6357620Y6132829D01*
X6367779Y6127750D01*
X6388608Y6127750D01*
X6399022Y6132829D01*
X6409436Y6143244D01*
X6414770Y6153657D01*
X6414770Y6169152D01*
X6388608Y6169152D02*
G01*
X6414770Y6169152D01*
X4152900Y10453115D02*
G01*
X4152900Y10344150D01*
X4152900Y10453115D02*
G01*
X4199636Y10453115D01*
X4215129Y10448036D01*
X4220463Y10442702D01*
X4225543Y10432287D01*
X4225543Y10421874D01*
X4220463Y10411460D01*
X4215129Y10406379D01*
X4199636Y10401300D01*
X4152900Y10401300D02*
G01*
X4199636Y10401300D01*
X4215129Y10395965D01*
X4220463Y10390886D01*
X4225543Y10380471D01*
X4225543Y10364724D01*
X4220463Y10354310D01*
X4215129Y10349229D01*
X4199636Y10344150D01*
X4152900Y10344150D01*
X4259834Y10453115D02*
G01*
X4259834Y10375137D01*
X4265168Y10359644D01*
X4275581Y10349229D01*
X4291075Y10344150D01*
X4301490Y10344150D01*
X4316984Y10349229D01*
X4327397Y10359644D01*
X4332731Y10375137D01*
X4332731Y10453115D01*
X4439665Y10453115D02*
G01*
X4367022Y10344150D01*
X4367022Y10453115D02*
G01*
X4439665Y10453115D01*
X4367022Y10344150D02*
G01*
X4439665Y10344150D01*
X4546600Y10453115D02*
G01*
X4473956Y10344150D01*
X4473956Y10453115D02*
G01*
X4546600Y10453115D01*
X4473956Y10344150D02*
G01*
X4546600Y10344150D01*
X4580890Y10453115D02*
G01*
X4580890Y10344150D01*
X4580890Y10453115D02*
G01*
X4648454Y10453115D01*
X4580890Y10401300D02*
G01*
X4622545Y10401300D01*
X4580890Y10344150D02*
G01*
X4648454Y10344150D01*
X4682743Y10453115D02*
G01*
X4682743Y10344150D01*
X4682743Y10453115D02*
G01*
X4729479Y10453115D01*
X4745227Y10448036D01*
X4750308Y10442702D01*
X4755641Y10432287D01*
X4755641Y10421874D01*
X4750308Y10411460D01*
X4745227Y10406379D01*
X4729479Y10401300D01*
X4682743Y10401300D01*
X4719320Y10401300D02*
G01*
X4755641Y10344150D01*
X4192777Y7569708D02*
G01*
X4187443Y7580121D01*
X4177029Y7590536D01*
X4166870Y7595615D01*
X4146041Y7595615D01*
X4135627Y7590536D01*
X4125213Y7580121D01*
X4119879Y7569708D01*
X4114800Y7553960D01*
X4114800Y7528052D01*
X4119879Y7512558D01*
X4125213Y7502144D01*
X4135627Y7491729D01*
X4146041Y7486650D01*
X4166870Y7486650D01*
X4177029Y7491729D01*
X4187443Y7502144D01*
X4192777Y7512558D01*
X4227068Y7574787D02*
G01*
X4237481Y7580121D01*
X4252975Y7595615D01*
X4252975Y7486650D01*
X4287265Y7533386D02*
G01*
X4380738Y7533386D01*
X4415027Y7574787D02*
G01*
X4425441Y7580121D01*
X4441190Y7595615D01*
X4441190Y7486650D01*
X4506468Y7595615D02*
G01*
X4490974Y7590536D01*
X4480559Y7574787D01*
X4475479Y7548879D01*
X4475479Y7533386D01*
X4480559Y7507223D01*
X4490974Y7491729D01*
X4506468Y7486650D01*
X4516881Y7486650D01*
X4532629Y7491729D01*
X4542790Y7507223D01*
X4548124Y7533386D01*
X4548124Y7548879D01*
X4542790Y7574787D01*
X4532629Y7590536D01*
X4516881Y7595615D01*
X4506468Y7595615D01*
X4613656Y7595615D02*
G01*
X4597908Y7590536D01*
X4587493Y7574787D01*
X4582413Y7548879D01*
X4582413Y7533386D01*
X4587493Y7507223D01*
X4597908Y7491729D01*
X4613656Y7486650D01*
X4624070Y7486650D01*
X4639563Y7491729D01*
X4649977Y7507223D01*
X4655058Y7533386D01*
X4655058Y7548879D01*
X4649977Y7574787D01*
X4639563Y7590536D01*
X4624070Y7595615D01*
X4613656Y7595615D01*
X4689347Y7595615D02*
G01*
X4689347Y7486650D01*
X4689347Y7595615D02*
G01*
X4762245Y7486650D01*
X4762245Y7595615D02*
G01*
X4762245Y7486650D01*
X4796536Y7595615D02*
G01*
X4796536Y7486650D01*
X4796536Y7595615D02*
G01*
X4864100Y7595615D01*
X4796536Y7543800D02*
G01*
X4837938Y7543800D01*
X5500877Y7163308D02*
G01*
X5495543Y7173721D01*
X5485129Y7184136D01*
X5474970Y7189215D01*
X5454141Y7189215D01*
X5443727Y7184136D01*
X5433313Y7173721D01*
X5427979Y7163308D01*
X5422900Y7147560D01*
X5422900Y7121652D01*
X5427979Y7106158D01*
X5433313Y7095744D01*
X5443727Y7085329D01*
X5454141Y7080250D01*
X5474970Y7080250D01*
X5485129Y7085329D01*
X5495543Y7095744D01*
X5500877Y7106158D01*
X5540247Y7163308D02*
G01*
X5540247Y7168387D01*
X5545581Y7178802D01*
X5550661Y7184136D01*
X5561075Y7189215D01*
X5581904Y7189215D01*
X5592318Y7184136D01*
X5597397Y7178802D01*
X5602731Y7168387D01*
X5602731Y7157973D01*
X5597397Y7147560D01*
X5586984Y7132065D01*
X5535168Y7080250D01*
X5607811Y7080250D01*
X5642102Y7126986D02*
G01*
X5735574Y7126986D01*
X5769863Y7168387D02*
G01*
X5780277Y7173721D01*
X5796025Y7189215D01*
X5796025Y7080250D01*
X5861304Y7189215D02*
G01*
X5845809Y7184136D01*
X5835395Y7168387D01*
X5830315Y7142479D01*
X5830315Y7126986D01*
X5835395Y7100823D01*
X5845809Y7085329D01*
X5861304Y7080250D01*
X5871718Y7080250D01*
X5887465Y7085329D01*
X5897879Y7100823D01*
X5902959Y7126986D01*
X5902959Y7142479D01*
X5897879Y7168387D01*
X5887465Y7184136D01*
X5871718Y7189215D01*
X5861304Y7189215D01*
X5968491Y7189215D02*
G01*
X5952743Y7184136D01*
X5942329Y7168387D01*
X5937250Y7142479D01*
X5937250Y7126986D01*
X5942329Y7100823D01*
X5952743Y7085329D01*
X5968491Y7080250D01*
X5978906Y7080250D01*
X5994400Y7085329D01*
X6004813Y7100823D01*
X6009893Y7126986D01*
X6009893Y7142479D01*
X6004813Y7168387D01*
X5994400Y7184136D01*
X5978906Y7189215D01*
X5968491Y7189215D01*
X6044184Y7189215D02*
G01*
X6044184Y7111237D01*
X6049518Y7095744D01*
X6059931Y7085329D01*
X6075425Y7080250D01*
X6085840Y7080250D01*
X6101334Y7085329D01*
X6111747Y7095744D01*
X6117081Y7111237D01*
X6117081Y7189215D01*
X6151372Y7189215D02*
G01*
X6151372Y7080250D01*
X6151372Y7189215D02*
G01*
X6218936Y7189215D01*
X6151372Y7137400D02*
G01*
X6192774Y7137400D01*
X4332477Y6185407D02*
G01*
X4327143Y6195821D01*
X4316729Y6206236D01*
X4306570Y6211315D01*
X4285741Y6211315D01*
X4275327Y6206236D01*
X4264913Y6195821D01*
X4259579Y6185407D01*
X4254500Y6169660D01*
X4254500Y6143752D01*
X4259579Y6128257D01*
X4264913Y6117844D01*
X4275327Y6107429D01*
X4285741Y6102350D01*
X4306570Y6102350D01*
X4316729Y6107429D01*
X4327143Y6117844D01*
X4332477Y6128257D01*
X4332477Y6143752D01*
X4306570Y6143752D02*
G01*
X4332477Y6143752D01*
X4366768Y6211315D02*
G01*
X4408170Y6159500D01*
X4408170Y6102350D01*
X4449825Y6211315D02*
G01*
X4408170Y6159500D01*
X4484115Y6211315D02*
G01*
X4484115Y6102350D01*
X4484115Y6211315D02*
G01*
X4530852Y6211315D01*
X4546600Y6206236D01*
X4551679Y6200902D01*
X4556759Y6190487D01*
X4556759Y6180073D01*
X4551679Y6169660D01*
X4546600Y6164579D01*
X4530852Y6159500D01*
X4484115Y6159500D01*
X4520438Y6159500D02*
G01*
X4556759Y6102350D01*
X4622291Y6211315D02*
G01*
X4611877Y6206236D01*
X4601463Y6195821D01*
X4596384Y6185407D01*
X4591050Y6169660D01*
X4591050Y6143752D01*
X4596384Y6128257D01*
X4601463Y6117844D01*
X4611877Y6107429D01*
X4622291Y6102350D01*
X4643120Y6102350D01*
X4653534Y6107429D01*
X4663947Y6117844D01*
X4669027Y6128257D01*
X4674361Y6143752D01*
X4674361Y6169660D01*
X4669027Y6185407D01*
X4663947Y6195821D01*
X4653534Y6206236D01*
X4643120Y6211315D01*
X4622291Y6211315D01*
X6159500Y10364215D02*
G01*
X6159500Y10255250D01*
X6159500Y10364215D02*
G01*
X6201156Y10255250D01*
X6242558Y10364215D02*
G01*
X6201156Y10255250D01*
X6242558Y10364215D02*
G01*
X6242558Y10255250D01*
X6308090Y10364215D02*
G01*
X6297675Y10359136D01*
X6287261Y10348721D01*
X6282181Y10338308D01*
X6276847Y10322560D01*
X6276847Y10296652D01*
X6282181Y10281158D01*
X6287261Y10270744D01*
X6297675Y10260329D01*
X6308090Y10255250D01*
X6328918Y10255250D01*
X6339331Y10260329D01*
X6349745Y10270744D01*
X6354825Y10281158D01*
X6360159Y10296652D01*
X6360159Y10322560D01*
X6354825Y10338308D01*
X6349745Y10348721D01*
X6339331Y10359136D01*
X6328918Y10364215D01*
X6308090Y10364215D01*
X6430772Y10364215D02*
G01*
X6430772Y10255250D01*
X6394450Y10364215D02*
G01*
X6467093Y10364215D01*
X6532625Y10364215D02*
G01*
X6522211Y10359136D01*
X6511797Y10348721D01*
X6506463Y10338308D01*
X6501384Y10322560D01*
X6501384Y10296652D01*
X6506463Y10281158D01*
X6511797Y10270744D01*
X6522211Y10260329D01*
X6532625Y10255250D01*
X6553200Y10255250D01*
X6563613Y10260329D01*
X6574027Y10270744D01*
X6579361Y10281158D01*
X6584441Y10296652D01*
X6584441Y10322560D01*
X6579361Y10338308D01*
X6574027Y10348721D01*
X6563613Y10359136D01*
X6553200Y10364215D01*
X6532625Y10364215D01*
X6618731Y10364215D02*
G01*
X6618731Y10255250D01*
X6618731Y10364215D02*
G01*
X6665468Y10364215D01*
X6681215Y10359136D01*
X6686295Y10353802D01*
X6691629Y10343387D01*
X6691629Y10332974D01*
X6686295Y10322560D01*
X6681215Y10317479D01*
X6665468Y10312400D01*
X6618731Y10312400D01*
X6655054Y10312400D02*
G01*
X6691629Y10255250D01*
X6725920Y10343387D02*
G01*
X6736079Y10348721D01*
X6751827Y10364215D01*
X6751827Y10255250D01*
X6146800Y9348215D02*
G01*
X6146800Y9239250D01*
X6146800Y9348215D02*
G01*
X6188456Y9239250D01*
X6229858Y9348215D02*
G01*
X6188456Y9239250D01*
X6229858Y9348215D02*
G01*
X6229858Y9239250D01*
X6295390Y9348215D02*
G01*
X6284975Y9343136D01*
X6274561Y9332721D01*
X6269481Y9322308D01*
X6264147Y9306560D01*
X6264147Y9280652D01*
X6269481Y9265158D01*
X6274561Y9254744D01*
X6284975Y9244329D01*
X6295390Y9239250D01*
X6316218Y9239250D01*
X6326631Y9244329D01*
X6337045Y9254744D01*
X6342125Y9265158D01*
X6347459Y9280652D01*
X6347459Y9306560D01*
X6342125Y9322308D01*
X6337045Y9332721D01*
X6326631Y9343136D01*
X6316218Y9348215D01*
X6295390Y9348215D01*
X6418072Y9348215D02*
G01*
X6418072Y9239250D01*
X6381750Y9348215D02*
G01*
X6454393Y9348215D01*
X6519925Y9348215D02*
G01*
X6509511Y9343136D01*
X6499097Y9332721D01*
X6493763Y9322308D01*
X6488684Y9306560D01*
X6488684Y9280652D01*
X6493763Y9265158D01*
X6499097Y9254744D01*
X6509511Y9244329D01*
X6519925Y9239250D01*
X6540500Y9239250D01*
X6550913Y9244329D01*
X6561327Y9254744D01*
X6566661Y9265158D01*
X6571741Y9280652D01*
X6571741Y9306560D01*
X6566661Y9322308D01*
X6561327Y9332721D01*
X6550913Y9343136D01*
X6540500Y9348215D01*
X6519925Y9348215D01*
X6606031Y9348215D02*
G01*
X6606031Y9239250D01*
X6606031Y9348215D02*
G01*
X6652768Y9348215D01*
X6668515Y9343136D01*
X6673595Y9337802D01*
X6678929Y9327387D01*
X6678929Y9316974D01*
X6673595Y9306560D01*
X6668515Y9301479D01*
X6652768Y9296400D01*
X6606031Y9296400D01*
X6642354Y9296400D02*
G01*
X6678929Y9239250D01*
X6718300Y9322308D02*
G01*
X6718300Y9327387D01*
X6723379Y9337802D01*
X6728713Y9343136D01*
X6739127Y9348215D01*
X6759956Y9348215D01*
X6770370Y9343136D01*
X6775450Y9337802D01*
X6780529Y9327387D01*
X6780529Y9316974D01*
X6775450Y9306560D01*
X6765036Y9291065D01*
X6713220Y9239250D01*
X6785863Y9239250D01*
X6146800Y8344915D02*
G01*
X6146800Y8235950D01*
X6146800Y8344915D02*
G01*
X6188456Y8235950D01*
X6229858Y8344915D02*
G01*
X6188456Y8235950D01*
X6229858Y8344915D02*
G01*
X6229858Y8235950D01*
X6295390Y8344915D02*
G01*
X6284975Y8339836D01*
X6274561Y8329421D01*
X6269481Y8319008D01*
X6264147Y8303260D01*
X6264147Y8277352D01*
X6269481Y8261858D01*
X6274561Y8251444D01*
X6284975Y8241029D01*
X6295390Y8235950D01*
X6316218Y8235950D01*
X6326631Y8241029D01*
X6337045Y8251444D01*
X6342125Y8261858D01*
X6347459Y8277352D01*
X6347459Y8303260D01*
X6342125Y8319008D01*
X6337045Y8329421D01*
X6326631Y8339836D01*
X6316218Y8344915D01*
X6295390Y8344915D01*
X6418072Y8344915D02*
G01*
X6418072Y8235950D01*
X6381750Y8344915D02*
G01*
X6454393Y8344915D01*
X6519925Y8344915D02*
G01*
X6509511Y8339836D01*
X6499097Y8329421D01*
X6493763Y8319008D01*
X6488684Y8303260D01*
X6488684Y8277352D01*
X6493763Y8261858D01*
X6499097Y8251444D01*
X6509511Y8241029D01*
X6519925Y8235950D01*
X6540500Y8235950D01*
X6550913Y8241029D01*
X6561327Y8251444D01*
X6566661Y8261858D01*
X6571741Y8277352D01*
X6571741Y8303260D01*
X6566661Y8319008D01*
X6561327Y8329421D01*
X6550913Y8339836D01*
X6540500Y8344915D01*
X6519925Y8344915D01*
X6606031Y8344915D02*
G01*
X6606031Y8235950D01*
X6606031Y8344915D02*
G01*
X6652768Y8344915D01*
X6668515Y8339836D01*
X6673595Y8334502D01*
X6678929Y8324087D01*
X6678929Y8313673D01*
X6673595Y8303260D01*
X6668515Y8298179D01*
X6652768Y8293100D01*
X6606031Y8293100D01*
X6642354Y8293100D02*
G01*
X6678929Y8235950D01*
X6723379Y8344915D02*
G01*
X6780529Y8344915D01*
X6749541Y8303260D01*
X6765036Y8303260D01*
X6775450Y8298179D01*
X6780529Y8293100D01*
X6785863Y8277352D01*
X6785863Y8266937D01*
X6780529Y8251444D01*
X6770370Y8241029D01*
X6754622Y8235950D01*
X6739127Y8235950D01*
X6723379Y8241029D01*
X6718300Y8246110D01*
X6713220Y8256523D01*
X4165600Y9030715D02*
G01*
X4165600Y8921750D01*
X4165600Y9030715D02*
G01*
X4212336Y9030715D01*
X4227829Y9025636D01*
X4233163Y9020302D01*
X4238243Y9009887D01*
X4238243Y8999474D01*
X4233163Y8989060D01*
X4227829Y8983979D01*
X4212336Y8978900D01*
X4165600Y8978900D01*
X4201922Y8978900D02*
G01*
X4238243Y8921750D01*
X4277868Y9004808D02*
G01*
X4277868Y9009887D01*
X4282947Y9020302D01*
X4288281Y9025636D01*
X4298695Y9030715D01*
X4319270Y9030715D01*
X4329684Y9025636D01*
X4335018Y9020302D01*
X4340097Y9009887D01*
X4340097Y8999474D01*
X4335018Y8989060D01*
X4324604Y8973565D01*
X4272534Y8921750D01*
X4345431Y8921750D01*
X4379722Y8968486D02*
G01*
X4473193Y8968486D01*
X4507484Y9009887D02*
G01*
X4517897Y9015221D01*
X4533391Y9030715D01*
X4533391Y8921750D01*
X4598924Y9030715D02*
G01*
X4583429Y9025636D01*
X4573015Y9009887D01*
X4567681Y8983979D01*
X4567681Y8968486D01*
X4573015Y8942324D01*
X4583429Y8926829D01*
X4598924Y8921750D01*
X4609338Y8921750D01*
X4624831Y8926829D01*
X4635245Y8942324D01*
X4640579Y8968486D01*
X4640579Y8983979D01*
X4635245Y9009887D01*
X4624831Y9025636D01*
X4609338Y9030715D01*
X4598924Y9030715D01*
X4674870Y9030715D02*
G01*
X4674870Y8921750D01*
X4747513Y9030715D02*
G01*
X4674870Y8958071D01*
X4700777Y8983979D02*
G01*
X4747513Y8921750D01*
X4140200Y8548115D02*
G01*
X4140200Y8439150D01*
X4140200Y8548115D02*
G01*
X4186936Y8548115D01*
X4202429Y8543036D01*
X4207763Y8537702D01*
X4212843Y8527287D01*
X4212843Y8516874D01*
X4207763Y8506460D01*
X4202429Y8501379D01*
X4186936Y8496300D01*
X4140200Y8496300D01*
X4176522Y8496300D02*
G01*
X4212843Y8439150D01*
X4257547Y8548115D02*
G01*
X4314697Y8548115D01*
X4283709Y8506460D01*
X4299204Y8506460D01*
X4309618Y8501379D01*
X4314697Y8496300D01*
X4320031Y8480552D01*
X4320031Y8470137D01*
X4314697Y8454644D01*
X4304284Y8444229D01*
X4288790Y8439150D01*
X4273295Y8439150D01*
X4257547Y8444229D01*
X4252468Y8449310D01*
X4247134Y8459724D01*
X4354322Y8485886D02*
G01*
X4447793Y8485886D01*
X4544313Y8532621D02*
G01*
X4539234Y8543036D01*
X4523740Y8548115D01*
X4513325Y8548115D01*
X4497577Y8543036D01*
X4487163Y8527287D01*
X4482084Y8501379D01*
X4482084Y8475471D01*
X4487163Y8454644D01*
X4497577Y8444229D01*
X4513325Y8439150D01*
X4518406Y8439150D01*
X4533900Y8444229D01*
X4544313Y8454644D01*
X4549647Y8470137D01*
X4549647Y8475471D01*
X4544313Y8490965D01*
X4533900Y8501379D01*
X4518406Y8506460D01*
X4513325Y8506460D01*
X4497577Y8501379D01*
X4487163Y8490965D01*
X4482084Y8475471D01*
X4589018Y8465058D02*
G01*
X4583938Y8459724D01*
X4589018Y8454644D01*
X4594352Y8459724D01*
X4589018Y8465058D01*
X4654550Y8548115D02*
G01*
X4639056Y8543036D01*
X4633722Y8532621D01*
X4633722Y8522208D01*
X4639056Y8511794D01*
X4649470Y8506460D01*
X4670043Y8501379D01*
X4685791Y8496300D01*
X4696206Y8485886D01*
X4701286Y8475471D01*
X4701286Y8459724D01*
X4696206Y8449310D01*
X4690872Y8444229D01*
X4675377Y8439150D01*
X4654550Y8439150D01*
X4639056Y8444229D01*
X4633722Y8449310D01*
X4628641Y8459724D01*
X4628641Y8475471D01*
X4633722Y8485886D01*
X4644136Y8496300D01*
X4659629Y8501379D01*
X4680458Y8506460D01*
X4690872Y8511794D01*
X4696206Y8522208D01*
X4696206Y8532621D01*
X4690872Y8543036D01*
X4675377Y8548115D01*
X4654550Y8548115D01*
X4735575Y8548115D02*
G01*
X4735575Y8439150D01*
X4808220Y8548115D02*
G01*
X4735575Y8475471D01*
X4761484Y8501379D02*
G01*
X4808220Y8439150D01*
X4152900Y8078215D02*
G01*
X4152900Y7969250D01*
X4152900Y8078215D02*
G01*
X4199636Y8078215D01*
X4215129Y8073136D01*
X4220463Y8067802D01*
X4225543Y8057387D01*
X4225543Y8046973D01*
X4220463Y8036560D01*
X4215129Y8031479D01*
X4199636Y8026400D01*
X4152900Y8026400D01*
X4189222Y8026400D02*
G01*
X4225543Y7969250D01*
X4311904Y8078215D02*
G01*
X4259834Y8005571D01*
X4337811Y8005571D01*
X4311904Y8078215D02*
G01*
X4311904Y7969250D01*
X4372102Y8015986D02*
G01*
X4465574Y8015986D01*
X4510277Y8078215D02*
G01*
X4567427Y8078215D01*
X4536440Y8036560D01*
X4551934Y8036560D01*
X4562347Y8031479D01*
X4567427Y8026400D01*
X4572761Y8010652D01*
X4572761Y8000237D01*
X4567427Y7984744D01*
X4557013Y7974329D01*
X4541520Y7969250D01*
X4526025Y7969250D01*
X4510277Y7974329D01*
X4505197Y7979410D01*
X4499863Y7989823D01*
X4617465Y8078215D02*
G01*
X4674615Y8078215D01*
X4643374Y8036560D01*
X4658868Y8036560D01*
X4669281Y8031479D01*
X4674615Y8026400D01*
X4679695Y8010652D01*
X4679695Y8000237D01*
X4674615Y7984744D01*
X4664202Y7974329D01*
X4648454Y7969250D01*
X4632959Y7969250D01*
X4617465Y7974329D01*
X4612131Y7979410D01*
X4607052Y7989823D01*
X4713986Y8078215D02*
G01*
X4713986Y7969250D01*
X4786629Y8078215D02*
G01*
X4713986Y8005571D01*
X4739893Y8031479D02*
G01*
X4786629Y7969250D01*
X4062222Y6935215D02*
G01*
X4062222Y6826250D01*
X4025900Y6935215D02*
G01*
X4098543Y6935215D01*
X4132834Y6914387D02*
G01*
X4143247Y6919721D01*
X4158995Y6935215D01*
X4158995Y6826250D01*
X4193286Y6872986D02*
G01*
X4286758Y6872986D01*
X4326127Y6909308D02*
G01*
X4326127Y6914387D01*
X4331461Y6924802D01*
X4336541Y6930136D01*
X4346956Y6935215D01*
X4367784Y6935215D01*
X4378197Y6930136D01*
X4383277Y6924802D01*
X4388611Y6914387D01*
X4388611Y6903973D01*
X4383277Y6893560D01*
X4372863Y6878065D01*
X4321047Y6826250D01*
X4393691Y6826250D01*
X4427981Y6935215D02*
G01*
X4427981Y6826250D01*
X4427981Y6935215D02*
G01*
X4500879Y6826250D01*
X4500879Y6935215D02*
G01*
X4500879Y6826250D01*
X4540250Y6909308D02*
G01*
X4540250Y6914387D01*
X4545329Y6924802D01*
X4550663Y6930136D01*
X4561077Y6935215D01*
X4581906Y6935215D01*
X4592320Y6930136D01*
X4597400Y6924802D01*
X4602479Y6914387D01*
X4602479Y6903973D01*
X4597400Y6893560D01*
X4586986Y6878065D01*
X4535170Y6826250D01*
X4607813Y6826250D01*
X4647184Y6909308D02*
G01*
X4647184Y6914387D01*
X4652518Y6924802D01*
X4657597Y6930136D01*
X4668011Y6935215D01*
X4688840Y6935215D01*
X4699254Y6930136D01*
X4704334Y6924802D01*
X4709668Y6914387D01*
X4709668Y6903973D01*
X4704334Y6893560D01*
X4693920Y6878065D01*
X4642104Y6826250D01*
X4714747Y6826250D01*
X4754372Y6909308D02*
G01*
X4754372Y6914387D01*
X4759452Y6924802D01*
X4764786Y6930136D01*
X4775200Y6935215D01*
X4795774Y6935215D01*
X4806188Y6930136D01*
X4811522Y6924802D01*
X4816602Y6914387D01*
X4816602Y6903973D01*
X4811522Y6893560D01*
X4801108Y6878065D01*
X4749038Y6826250D01*
X4821936Y6826250D01*
X4861306Y6909308D02*
G01*
X4861306Y6914387D01*
X4866640Y6924802D01*
X4871720Y6930136D01*
X4882134Y6935215D01*
X4902961Y6935215D01*
X4913375Y6930136D01*
X4918456Y6924802D01*
X4923790Y6914387D01*
X4923790Y6903973D01*
X4918456Y6893560D01*
X4908041Y6878065D01*
X4856225Y6826250D01*
X4928870Y6826250D01*
G36*
X6007100Y6934200D02*
G01*
X6007100Y6477000D01*
X6018580Y6487922D01*
X6029502Y6499402D01*
X6039815Y6511442D01*
X6049467Y6524040D01*
X6058509Y6537045D01*
X6066840Y6550558D01*
X6074460Y6564426D01*
X6081369Y6578701D01*
X6087516Y6593331D01*
X6092901Y6608216D01*
X6097524Y6623405D01*
X6101384Y6638747D01*
X6104382Y6654342D01*
X6106617Y6669989D01*
X6108039Y6685788D01*
X6108649Y6701637D01*
X6108446Y6717487D01*
X6107430Y6733286D01*
X6105601Y6749034D01*
X6102959Y6764680D01*
X6101384Y6772452D01*
X6097524Y6787794D01*
X6092901Y6802983D01*
X6087516Y6817868D01*
X6081369Y6832498D01*
X6074460Y6846773D01*
X6066840Y6860641D01*
X6058509Y6874154D01*
X6049467Y6887159D01*
X6039815Y6899757D01*
X6029502Y6911797D01*
X6018580Y6923278D01*
G37*
D13*
X3697617Y10615815D02*
G01*
X3697617Y5415826D01*
X907630Y5415826D01*
X907630Y10615815D01*
X3697617Y10615815D01*
X6800900Y6218298D02*
G01*
X6800900Y7218298D01*
X6800900Y7218298D02*
G01*
X7570899Y7218298D01*
X6800900Y6218298D02*
G01*
X7570899Y6218298D01*
X7570899Y6218298D02*
G01*
X7570899Y7218298D01*
X6980844Y6218298D02*
G01*
X6980844Y7218298D01*
X7385359Y6218298D02*
G01*
X7385359Y7218298D01*
X6934200Y7226300D02*
G01*
X6934200Y7289098D01*
X7038261Y7289098D01*
X7038261Y7226300D01*
X5261086Y6075202D02*
G01*
X6321287Y6075202D01*
X6321287Y5595393D01*
X5261086Y5595393D01*
X5261086Y6074694D01*
X5261086Y6075202D01*
X6321183Y6015286D02*
G01*
X5261190Y6015286D01*
X4127500Y9880600D02*
G01*
X4229100Y9880600D01*
X4178300Y9931400D02*
G01*
X4178300Y9829800D01*
X4205399Y7428997D02*
G01*
X4735400Y7428997D01*
X4735400Y7049002D02*
G01*
X4205399Y7049002D01*
X4205399Y7049002D02*
G01*
X4205399Y7156620D01*
X4205399Y7321379D02*
G01*
X4205399Y7428997D01*
X4735400Y7049002D02*
G01*
X4735400Y7156620D01*
X4735400Y7321379D02*
G01*
X4735400Y7428997D01*
X5664200Y6781800D02*
G01*
X5664200Y6629400D01*
X5727700Y6705600D02*
G01*
X5600700Y6705600D01*
D14*
X4269534Y5625795D02*
G01*
X4269534Y5595797D01*
X4669533Y5625795D02*
G01*
X4669533Y5595797D01*
X4269534Y5625795D02*
G01*
X4669533Y5625795D01*
X3970400Y5595797D02*
G01*
X4269536Y5595797D01*
X4970399Y5595797D01*
X3970400Y6055791D02*
G01*
X4970399Y6055791D01*
X3970400Y6055791D02*
G01*
X3970400Y5595797D01*
X4970399Y6055791D02*
G01*
X4970399Y5595797D01*
D13*
X5858027Y9880600D02*
G01*
X7064298Y9880600D01*
X7364298Y9524601D02*
G01*
X5564301Y9524601D01*
X7364298Y9524601D02*
G01*
X7364298Y10134600D01*
X7263612Y10134600D01*
X7062797Y9880600D02*
G01*
X7062797Y9524601D01*
X5858027Y9524492D02*
G01*
X5858027Y9880600D01*
X5564301Y9524601D02*
G01*
X5564301Y10134600D01*
X5664987Y10134600D01*
X5858027Y8864600D02*
G01*
X7064298Y8864600D01*
X7364298Y8508601D02*
G01*
X5564301Y8508601D01*
X7364298Y8508601D02*
G01*
X7364298Y9118600D01*
X7263612Y9118600D01*
X7062797Y8864600D02*
G01*
X7062797Y8508601D01*
X5858027Y8508492D02*
G01*
X5858027Y8864600D01*
X5564301Y8508601D02*
G01*
X5564301Y9118600D01*
X5664987Y9118600D01*
X5858027Y7848600D02*
G01*
X7064298Y7848600D01*
X7364298Y7492601D02*
G01*
X5564301Y7492601D01*
X7364298Y7492601D02*
G01*
X7364298Y8102600D01*
X7263612Y8102600D01*
X7062797Y7848600D02*
G01*
X7062797Y7492601D01*
X5858027Y7492492D02*
G01*
X5858027Y7848600D01*
X5564301Y7492601D02*
G01*
X5564301Y8102600D01*
X5664987Y8102600D01*
X4155399Y8870299D02*
G01*
X4785400Y8870299D01*
X4785400Y8870299D02*
G01*
X4785400Y8630300D01*
X4785400Y8630300D02*
G01*
X4155399Y8630300D01*
X4155399Y8630300D02*
G01*
X4155399Y8870299D01*
X4155399Y8387699D02*
G01*
X4785400Y8387699D01*
X4785400Y8387699D02*
G01*
X4785400Y8147700D01*
X4785400Y8147700D02*
G01*
X4155399Y8147700D01*
X4155399Y8147700D02*
G01*
X4155399Y8387699D01*
X4155399Y7917799D02*
G01*
X4785400Y7917799D01*
X4785400Y7917799D02*
G01*
X4785400Y7677800D01*
X4785400Y7677800D02*
G01*
X4155399Y7677800D01*
X4155399Y7677800D02*
G01*
X4155399Y7917799D01*
X3960395Y6692630D02*
G01*
X4980404Y6692630D01*
X4980404Y6689003D01*
X3970398Y6772389D02*
G01*
X4980404Y6772389D01*
X4980404Y6302390D01*
X3960395Y6302390D01*
X3960395Y6772389D01*
D15*
G75*
G01*
X5514190Y5532796D02*
G03*
X5514444Y5532796I127J-20000D01*
G75*
G01*
X4020401Y6252390D02*
G03*
X4020655Y6252390I127J-19999D01*
D13*
G75*
G01
X5057648Y9702800D02*
G03X5057648Y9702800I-599948J0D01*
G75*
G01
X6106160Y6705600D02*
G03X6106160Y6705600I-314960J0D01*
M02*
