G04 Layer: BottomLayer*
G04 EasyEDA v6.5.37, 2024-05-09 17:42:45*
G04 b4389e9f867d4d858d6c44b43acf2c5f,de6e78b871f74d9a82e93d7738eb9b3f,10*
G04 Gerber Generator version 0.2*
G04 Scale: 100 percent, Rotated: No, Reflected: No *
G04 Dimensions in millimeters *
G04 leading zeros omitted , absolute positions ,4 integer and 5 decimal *
%FSLAX45Y45*%
%MOMM*%

%ADD10C,0.2540*%
%ADD11C,1.9304*%
%ADD12C,2.2000*%
%ADD13O,1.7999964X2.5999948*%
%ADD14R,1.8000X2.6000*%
%ADD15C,1.7780*%
%ADD16C,1.2000*%
%ADD17C,1.5240*%
%ADD18R,1.4000X1.4000*%
%ADD19C,1.4000*%
%ADD20R,1.5240X1.5240*%
%ADD21O,1.8999962X2.3999952*%
%ADD22R,1.9000X2.4000*%
%ADD23C,0.6100*%

%LPD*%
D10*
X3550617Y7824825D02*
G01*
X3787777Y8061985D01*
X3787777Y8427262D01*
X3988005Y8627490D01*
X4154858Y7239000D02*
G01*
X4154858Y8550833D01*
X3955392Y8750300D01*
X4370402Y6348018D02*
G01*
X4108503Y6348018D01*
X4093314Y6363207D01*
X4093314Y7177455D01*
X4154858Y7239000D01*
X4154858Y7239000D02*
G01*
X4216402Y7239000D01*
X6091201Y6705600D02*
G01*
X6963615Y6705600D01*
X7200902Y6468313D01*
X5964303Y8102600D02*
G01*
X5964303Y6832498D01*
X6091201Y6705600D01*
X6091201Y6705600D02*
G01*
X5791177Y6405575D01*
X5791177Y5766307D01*
X4470402Y6502400D02*
G01*
X4470402Y6448018D01*
X4370402Y6348018D01*
X4370402Y6348018D02*
G01*
X4370402Y5765800D01*
X5964303Y9118600D02*
G01*
X5964303Y8102600D01*
X5964303Y9118600D02*
G01*
X5964303Y10134600D01*
X3955392Y8750300D02*
G01*
X3955392Y8944051D01*
X3550617Y9348825D01*
X7164301Y10134600D02*
G01*
X7279667Y10019233D01*
X7279667Y7694244D01*
X6991352Y7405928D01*
X4216402Y6502400D02*
G01*
X4216402Y6650329D01*
X4216402Y6650329D02*
G01*
X4305810Y6739737D01*
X4305810Y9225787D01*
X4782822Y9702800D01*
X3550617Y7316825D02*
G01*
X3421179Y7446263D01*
X3421179Y9400031D01*
X3496922Y9475774D01*
X3694610Y9475774D01*
X4464357Y10245521D01*
X6253380Y10245521D01*
X6364302Y10134600D01*
X6164303Y9118600D02*
G01*
X6164303Y10134600D01*
X6164303Y8102600D02*
G01*
X6164303Y9118600D01*
X4724402Y6502400D02*
G01*
X4815766Y6593763D01*
X4815766Y8098053D01*
X4985412Y8267700D01*
X5491203Y6705600D02*
G01*
X5491203Y9195638D01*
X4852875Y9833965D01*
X4263748Y9833965D01*
X4132582Y9702800D01*
X5491203Y6705600D02*
G01*
X5655261Y6541541D01*
X5655261Y5676417D01*
X5729099Y5602579D01*
X5882464Y5602579D01*
X6045202Y5765317D01*
X5537177Y5766307D02*
G01*
X5419270Y5766307D01*
X4985412Y7797800D02*
G01*
X4985412Y6200165D01*
X5419270Y5766307D01*
X5764303Y9118600D02*
G01*
X5764303Y10134600D01*
X5764303Y8102600D02*
G01*
X5764303Y9118600D01*
X6764301Y9118600D02*
G01*
X6764301Y10134600D01*
X6764301Y8102600D02*
G01*
X6764301Y9118600D01*
X4406267Y7613446D02*
G01*
X4406267Y8517889D01*
X5245737Y9357360D01*
X3955392Y7797800D02*
G01*
X3955392Y7213600D01*
X3550617Y6808825D01*
X4985412Y8750300D02*
G01*
X4724402Y8489289D01*
X4724402Y7239000D01*
X6564302Y9118600D02*
G01*
X6403748Y9279153D01*
X6403748Y9286519D01*
D11*
G01*
X1073607Y9602825D03*
G01*
X1073607Y9348825D03*
G01*
X1073607Y9094825D03*
G01*
X1073607Y8840825D03*
G01*
X1073607Y8586825D03*
G01*
X1073607Y8332825D03*
G01*
X1073607Y8078825D03*
G01*
X1073607Y7824825D03*
G01*
X1073607Y7570825D03*
G01*
X1073607Y7316825D03*
G01*
X1073607Y7062825D03*
G01*
X1073607Y6808825D03*
G01*
X1073607Y6554825D03*
G01*
X1073607Y6300825D03*
G01*
X1073607Y6046825D03*
G01*
X3550615Y6046825D03*
G01*
X3550615Y6300825D03*
G01*
X3550615Y6554825D03*
G01*
X3550615Y6808825D03*
G01*
X3550615Y7062825D03*
G01*
X3550615Y7316825D03*
G01*
X3550615Y7570825D03*
G01*
X3550615Y7824825D03*
G01*
X3550615Y8078825D03*
G01*
X3550615Y8332825D03*
G01*
X3550615Y8586825D03*
G01*
X3550615Y8840825D03*
G01*
X3550615Y9094825D03*
G01*
X3550615Y9348825D03*
G01*
X3550615Y9602825D03*
D12*
G01*
X7200900Y6468287D03*
G01*
X7200900Y6968286D03*
D13*
G01*
X5791200Y5766282D03*
G01*
X6045225Y5765292D03*
D14*
G01*
X5537200Y5766307D03*
D15*
G01*
X4132579Y9702800D03*
G01*
X4782820Y9702800D03*
D16*
G01*
X4216400Y7239000D03*
G01*
X4724400Y7239000D03*
D17*
G01*
X5491200Y6705600D03*
G01*
X6091199Y6705600D03*
D18*
G01*
X4170400Y5765800D03*
D19*
G01*
X4370400Y5765800D03*
G01*
X4570399Y5765800D03*
G01*
X4770399Y5765800D03*
D17*
G01*
X7164298Y10134600D03*
G01*
X6964299Y10134600D03*
G01*
X6764299Y10134600D03*
G01*
X6564299Y10134600D03*
G01*
X6364300Y10134600D03*
G01*
X6164300Y10134600D03*
G01*
X5964300Y10134600D03*
D20*
G01*
X5764301Y10134600D03*
D17*
G01*
X7164298Y9118600D03*
G01*
X6964299Y9118600D03*
G01*
X6764299Y9118600D03*
G01*
X6564299Y9118600D03*
G01*
X6364300Y9118600D03*
G01*
X6164300Y9118600D03*
G01*
X5964300Y9118600D03*
D20*
G01*
X5764301Y9118600D03*
D17*
G01*
X7164298Y8102600D03*
G01*
X6964299Y8102600D03*
G01*
X6764299Y8102600D03*
G01*
X6564299Y8102600D03*
G01*
X6364300Y8102600D03*
G01*
X6164300Y8102600D03*
G01*
X5964300Y8102600D03*
D20*
G01*
X5764301Y8102600D03*
D17*
G01*
X3955389Y8750300D03*
G01*
X4985410Y8750300D03*
G01*
X3955389Y8267700D03*
G01*
X4985410Y8267700D03*
G01*
X3955389Y7797800D03*
G01*
X4985410Y7797800D03*
D21*
G01*
X4470400Y6502374D03*
G01*
X4724400Y6502374D03*
D22*
G01*
X4216400Y6502400D03*
D23*
G01*
X3988003Y8627490D03*
G01*
X6991350Y7405928D03*
G01*
X4406265Y7613446D03*
G01*
X5245734Y9357360D03*
G01*
X6403746Y9286519D03*
M02*
