G04 Layer: TopLayer*
G04 EasyEDA v6.5.37, 2024-05-09 17:42:45*
G04 b4389e9f867d4d858d6c44b43acf2c5f,de6e78b871f74d9a82e93d7738eb9b3f,10*
G04 Gerber Generator version 0.2*
G04 Scale: 100 percent, Rotated: No, Reflected: No *
G04 Dimensions in millimeters *
G04 leading zeros omitted , absolute positions ,4 integer and 5 decimal *
%FSLAX45Y45*%
%MOMM*%

%ADD10C,0.2540*%
%ADD11C,1.9304*%
%ADD12C,2.2000*%
%ADD13O,1.7999964X2.5999948*%
%ADD14R,1.8000X2.6000*%
%ADD15C,1.7780*%
%ADD16C,1.2000*%
%ADD17C,1.5240*%
%ADD18R,1.4000X1.4000*%
%ADD19C,1.4000*%
%ADD20R,1.5240X1.5240*%
%ADD21O,1.8999962X2.3999952*%
%ADD22R,1.9000X2.4000*%
%ADD23C,0.6100*%

%LPD*%
D10*
X3988005Y8627490D02*
G01*
X5873193Y8627490D01*
X6364302Y9118600D01*
X4470402Y6502400D02*
G01*
X4789604Y6821601D01*
X5975200Y6821601D01*
X6091201Y6705600D01*
X6991352Y7405928D02*
G01*
X3893720Y7405928D01*
X3550617Y7062825D01*
X1073609Y7824825D02*
G01*
X940285Y7691501D01*
X940285Y7511364D01*
X1007823Y7443825D01*
X3672334Y7443825D01*
X3759634Y7531125D01*
X5992827Y7531125D01*
X6564302Y8102600D01*
X6164303Y8102600D02*
G01*
X6048148Y8218754D01*
X5421149Y8218754D01*
X5281221Y8078825D01*
X3550617Y8078825D01*
X4132582Y9702800D02*
G01*
X3650592Y9702800D01*
X3550617Y9602825D01*
X4170403Y5765800D02*
G01*
X4268320Y5765800D01*
X4268320Y5765800D02*
G01*
X4268320Y5716854D01*
X4389122Y5596051D01*
X5875936Y5596051D01*
X6045202Y5765317D01*
X5537177Y5766307D02*
G01*
X5655083Y5766307D01*
X5655083Y5766307D02*
G01*
X5655083Y5854725D01*
X6768670Y6968312D01*
X7200902Y6968312D01*
X5764303Y8102600D02*
G01*
X5660189Y8102600D01*
X4985412Y7797800D02*
G01*
X5355389Y7797800D01*
X5660189Y8102600D01*
X6764301Y10134600D02*
G01*
X6660009Y10238892D01*
X1709676Y10238892D01*
X1073609Y9602825D01*
X6964301Y10134600D02*
G01*
X6187061Y9357360D01*
X5245737Y9357360D01*
X4406267Y7613446D02*
G01*
X3593238Y7613446D01*
X3550617Y7570825D01*
X4724402Y7239000D02*
G01*
X4294228Y6808825D01*
X3550617Y6808825D01*
X6964301Y8102600D02*
G01*
X6807354Y8259546D01*
X5281907Y8259546D01*
X5185768Y8163407D01*
X3838729Y8163407D01*
X3793924Y8208213D01*
X1202997Y8208213D01*
X1073609Y8078825D01*
X3550617Y8586825D02*
G01*
X3568524Y8568918D01*
X6414620Y8568918D01*
X6964301Y9118600D01*
X7164301Y8102600D02*
G01*
X6804687Y8462213D01*
X1202997Y8462213D01*
X1073609Y8332825D01*
X6364302Y8102600D02*
G01*
X5946777Y7685074D01*
X3920644Y7685074D01*
X3907894Y7697825D01*
X1200609Y7697825D01*
X1073609Y7570825D01*
X4570402Y5765800D02*
G01*
X4465500Y5870702D01*
X1052273Y5870702D01*
X944222Y5978753D01*
X944222Y6171437D01*
X1073609Y6300825D01*
X4770401Y5765800D02*
G01*
X4362376Y6173825D01*
X1962609Y6173825D01*
X1073609Y7062825D01*
X6564302Y10134600D02*
G01*
X5905527Y9475825D01*
X1385724Y9475825D01*
X1132893Y9222994D01*
X1017932Y9222994D01*
X944222Y9149283D01*
X944222Y8716213D01*
X1073609Y8586825D01*
X3550617Y9094825D02*
G01*
X5227982Y9094825D01*
X5356202Y9223044D01*
X7059856Y9223044D01*
X7164301Y9118600D01*
X3955392Y8267700D02*
G01*
X3615743Y8267700D01*
X3550617Y8332825D01*
X1073609Y9094825D02*
G01*
X1200609Y9221825D01*
X5144518Y9221825D01*
X5209212Y9286519D01*
X6403748Y9286519D01*
D11*
G01*
X1073607Y9602825D03*
G01*
X1073607Y9348825D03*
G01*
X1073607Y9094825D03*
G01*
X1073607Y8840825D03*
G01*
X1073607Y8586825D03*
G01*
X1073607Y8332825D03*
G01*
X1073607Y8078825D03*
G01*
X1073607Y7824825D03*
G01*
X1073607Y7570825D03*
G01*
X1073607Y7316825D03*
G01*
X1073607Y7062825D03*
G01*
X1073607Y6808825D03*
G01*
X1073607Y6554825D03*
G01*
X1073607Y6300825D03*
G01*
X1073607Y6046825D03*
G01*
X3550615Y6046825D03*
G01*
X3550615Y6300825D03*
G01*
X3550615Y6554825D03*
G01*
X3550615Y6808825D03*
G01*
X3550615Y7062825D03*
G01*
X3550615Y7316825D03*
G01*
X3550615Y7570825D03*
G01*
X3550615Y7824825D03*
G01*
X3550615Y8078825D03*
G01*
X3550615Y8332825D03*
G01*
X3550615Y8586825D03*
G01*
X3550615Y8840825D03*
G01*
X3550615Y9094825D03*
G01*
X3550615Y9348825D03*
G01*
X3550615Y9602825D03*
D12*
G01*
X7200900Y6468287D03*
G01*
X7200900Y6968286D03*
D13*
G01*
X5791200Y5766282D03*
G01*
X6045225Y5765292D03*
D14*
G01*
X5537200Y5766307D03*
D15*
G01*
X4132579Y9702800D03*
G01*
X4782820Y9702800D03*
D16*
G01*
X4216400Y7239000D03*
G01*
X4724400Y7239000D03*
D17*
G01*
X5491200Y6705600D03*
G01*
X6091199Y6705600D03*
D18*
G01*
X4170400Y5765800D03*
D19*
G01*
X4370400Y5765800D03*
G01*
X4570399Y5765800D03*
G01*
X4770399Y5765800D03*
D17*
G01*
X7164298Y10134600D03*
G01*
X6964299Y10134600D03*
G01*
X6764299Y10134600D03*
G01*
X6564299Y10134600D03*
G01*
X6364300Y10134600D03*
G01*
X6164300Y10134600D03*
G01*
X5964300Y10134600D03*
D20*
G01*
X5764301Y10134600D03*
D17*
G01*
X7164298Y9118600D03*
G01*
X6964299Y9118600D03*
G01*
X6764299Y9118600D03*
G01*
X6564299Y9118600D03*
G01*
X6364300Y9118600D03*
G01*
X6164300Y9118600D03*
G01*
X5964300Y9118600D03*
D20*
G01*
X5764301Y9118600D03*
D17*
G01*
X7164298Y8102600D03*
G01*
X6964299Y8102600D03*
G01*
X6764299Y8102600D03*
G01*
X6564299Y8102600D03*
G01*
X6364300Y8102600D03*
G01*
X6164300Y8102600D03*
G01*
X5964300Y8102600D03*
D20*
G01*
X5764301Y8102600D03*
D17*
G01*
X3955389Y8750300D03*
G01*
X4985410Y8750300D03*
G01*
X3955389Y8267700D03*
G01*
X4985410Y8267700D03*
G01*
X3955389Y7797800D03*
G01*
X4985410Y7797800D03*
D21*
G01*
X4470400Y6502374D03*
G01*
X4724400Y6502374D03*
D22*
G01*
X4216400Y6502400D03*
D23*
G01*
X3988003Y8627490D03*
G01*
X6991350Y7405928D03*
G01*
X4406265Y7613446D03*
G01*
X5245734Y9357360D03*
G01*
X6403746Y9286519D03*
M02*
